solid OpenSCAD_Model
  facet normal 0.937627 0.0460678 0.344578
    outer loop
      vertex 10 0 0
      vertex 6.29454 0.619958 10
      vertex 6.325 0 10
    endloop
  endfacet
  facet normal 0.937627 0.0460601 0.344578
    outer loop
      vertex 9.95185 0.980171 0
      vertex 6.29454 0.619958 10
      vertex 10 0 0
    endloop
  endfacet
  facet normal -0.630433 -0.695572 0.344577
    outer loop
      vertex -4.47245 -4.47245 10
      vertex -6.34393 -7.7301 0
      vertex -4.01254 -4.88929 10
    endloop
  endfacet
  facet normal 0.695572 -0.630433 0.344577
    outer loop
      vertex 4.88929 -4.01254 10
      vertex 4.47245 -4.47245 10
      vertex 7.7301 -6.34393 0
    endloop
  endfacet
  facet normal 0.630433 0.695572 0.344577
    outer loop
      vertex 6.34393 7.7301 0
      vertex 4.01254 4.88929 10
      vertex 4.47245 4.47245 10
    endloop
  endfacet
  facet normal 0.928599 -0.137734 0.344577
    outer loop
      vertex 6.29454 -0.619958 10
      vertex 6.20347 -1.23395 10
      vertex 9.80785 -1.9509 0
    endloop
  endfacet
  facet normal 0.695579 -0.630425 0.344578
    outer loop
      vertex 7.7301 -6.34393 0
      vertex 4.47245 -4.47245 10
      vertex 7.07107 -7.07107 0
    endloop
  endfacet
  facet normal 0.928596 0.13775 0.344578
    outer loop
      vertex 9.80785 1.9509 0
      vertex 6.29454 0.619958 10
      vertex 9.95185 0.980171 0
    endloop
  endfacet
  facet normal 0.848625 0.401374 0.344578
    outer loop
      vertex 8.81921 4.71397 0
      vertex 5.57815 2.98158 10
      vertex 9.2388 3.82683 0
    endloop
  endfacet
  facet normal -0.928596 -0.13775 0.344578
    outer loop
      vertex -6.29454 -0.619958 10
      vertex -9.95185 -0.980171 0
      vertex -9.80785 -1.9509 0
    endloop
  endfacet
  facet normal -0.848625 -0.401374 0.344578
    outer loop
      vertex -5.57815 -2.98158 10
      vertex -9.2388 -3.82683 0
      vertex -8.81921 -4.71397 0
    endloop
  endfacet
  facet normal 0.13775 -0.928596 0.344578
    outer loop
      vertex 1.9509 -9.80785 0
      vertex 0.619958 -6.29454 10
      vertex 0.980171 -9.95185 0
    endloop
  endfacet
  facet normal 0.401374 -0.848625 0.344578
    outer loop
      vertex 4.71397 -8.81921 0
      vertex 2.98158 -5.57815 10
      vertex 3.82683 -9.2388 0
    endloop
  endfacet
  facet normal 0.754013 -0.559223 0.344578
    outer loop
      vertex 8.3147 -5.5557 0
      vertex 4.88929 -4.01254 10
      vertex 7.7301 -6.34393 0
    endloop
  endfacet
  facet normal 0.928596 -0.13775 0.344578
    outer loop
      vertex 9.95185 -0.980171 0
      vertex 6.29454 -0.619958 10
      vertex 9.80785 -1.9509 0
    endloop
  endfacet
  facet normal 0.31626 -0.883881 0.344578
    outer loop
      vertex 2.42047 -5.84354 10
      vertex 1.83605 -6.05265 10
      vertex 3.82683 -9.2388 0
    endloop
  endfacet
  facet normal 0.937627 -0.0460678 0.344578
    outer loop
      vertex 6.325 0 10
      vertex 6.29454 -0.619958 10
      vertex 10 0 0
    endloop
  endfacet
  facet normal 0.937627 -0.0460601 0.344578
    outer loop
      vertex 10 0 0
      vertex 6.29454 -0.619958 10
      vertex 9.95185 -0.980171 0
    endloop
  endfacet
  facet normal 0.910624 0.228102 0.344577
    outer loop
      vertex 9.80785 1.9509 0
      vertex 6.05265 1.83605 10
      vertex 6.20347 1.23395 10
    endloop
  endfacet
  facet normal -0.883883 0.316253 0.344578
    outer loop
      vertex -9.2388 3.82683 0
      vertex -9.5694 2.90285 0
      vertex -6.05265 1.83605 10
    endloop
  endfacet
  facet normal -0.937627 0.0460678 0.344578
    outer loop
      vertex -6.29454 0.619958 10
      vertex -10 0 0
      vertex -6.325 0 10
    endloop
  endfacet
  facet normal -0.401374 0.848625 0.344578
    outer loop
      vertex -3.82683 9.2388 0
      vertex -4.71397 8.81921 0
      vertex -2.98158 5.57815 10
    endloop
  endfacet
  facet normal -0.13775 0.928596 0.344578
    outer loop
      vertex -0.980171 9.95185 0
      vertex -1.9509 9.80785 0
      vertex -0.619958 6.29454 10
    endloop
  endfacet
  facet normal 0.754022 0.55921 0.344579
    outer loop
      vertex 8.3147 5.5557 0
      vertex 4.88929 4.01254 10
      vertex 5.25904 3.51398 10
    endloop
  endfacet
  facet normal 0.630425 0.695579 0.344578
    outer loop
      vertex 6.34393 7.7301 0
      vertex 4.47245 4.47245 10
      vertex 7.07107 7.07107 0
    endloop
  endfacet
  facet normal 0.910625 0.228099 0.344578
    outer loop
      vertex 9.5694 2.90285 0
      vertex 6.05265 1.83605 10
      vertex 9.80785 1.9509 0
    endloop
  endfacet
  facet normal 0.883883 0.316253 0.344578
    outer loop
      vertex 9.2388 3.82683 0
      vertex 6.05265 1.83605 10
      vertex 9.5694 2.90285 0
    endloop
  endfacet
  facet normal 0.55921 0.754022 0.344579
    outer loop
      vertex 5.5557 8.3147 0
      vertex 3.51398 5.25904 10
      vertex 4.01254 4.88929 10
    endloop
  endfacet
  facet normal -0.0460678 0.937627 0.344578
    outer loop
      vertex 0 10 0
      vertex -0.619958 6.29454 10
      vertex 0 6.325 10
    endloop
  endfacet
  facet normal -0.910624 -0.228102 0.344577
    outer loop
      vertex -6.20347 -1.23395 10
      vertex -9.80785 -1.9509 0
      vertex -6.05265 -1.83605 10
    endloop
  endfacet
  facet normal -0.937627 -0.0460601 0.344578
    outer loop
      vertex -6.29454 -0.619958 10
      vertex -10 0 0
      vertex -9.95185 -0.980171 0
    endloop
  endfacet
  facet normal 0 0 -1
    outer loop
      vertex 5.5 0 0
      vertex 10 0 0
      vertex 9.95185 -0.980171 0
    endloop
  endfacet
  facet normal 0 0 -1
    outer loop
      vertex 5.5 0 0
      vertex 9.95185 -0.980171 0
      vertex 9.80785 -1.9509 0
    endloop
  endfacet
  facet normal 0 0 -1
    outer loop
      vertex 10 0 0
      vertex 5.5 0 0
      vertex 9.95185 0.980171 0
    endloop
  endfacet
  facet normal 0 0 -1
    outer loop
      vertex 5.5 0 0
      vertex 9.80785 -1.9509 0
      vertex 9.5694 -2.90285 0
    endloop
  endfacet
  facet normal -0 0 -1
    outer loop
      vertex 9.95185 0.980171 0
      vertex 5.5 0 0
      vertex 9.80785 1.9509 0
    endloop
  endfacet
  facet normal 0 0 -1
    outer loop
      vertex 5.5 0 0
      vertex 9.5694 -2.90285 0
      vertex 9.2388 -3.82683 0
    endloop
  endfacet
  facet normal -0 0 -1
    outer loop
      vertex 9.80785 1.9509 0
      vertex 5.5 0 0
      vertex 9.5694 2.90285 0
    endloop
  endfacet
  facet normal 0 0 -1
    outer loop
      vertex 5.5 0 0
      vertex 9.2388 -3.82683 0
      vertex 8.81921 -4.71397 0
    endloop
  endfacet
  facet normal -0 0 -1
    outer loop
      vertex 9.5694 2.90285 0
      vertex 5.5 0 0
      vertex 9.2388 3.82683 0
    endloop
  endfacet
  facet normal 0 0 -1
    outer loop
      vertex 2.75 -4.76314 0
      vertex 8.81921 -4.71397 0
      vertex 8.3147 -5.5557 0
    endloop
  endfacet
  facet normal -0 0 -1
    outer loop
      vertex 9.2388 3.82683 0
      vertex 5.5 0 0
      vertex 8.81921 4.71397 0
    endloop
  endfacet
  facet normal 0 0 -1
    outer loop
      vertex 2.75 -4.76314 0
      vertex 8.3147 -5.5557 0
      vertex 7.7301 -6.34393 0
    endloop
  endfacet
  facet normal 0 0 -1
    outer loop
      vertex 2.75 4.76314 0
      vertex 8.81921 4.71397 0
      vertex 5.5 0 0
    endloop
  endfacet
  facet normal 0 0 -1
    outer loop
      vertex 2.75 -4.76314 0
      vertex 7.7301 -6.34393 0
      vertex 7.07107 -7.07107 0
    endloop
  endfacet
  facet normal 0 0 -1
    outer loop
      vertex 8.81921 4.71397 0
      vertex 2.75 4.76314 0
      vertex 8.3147 5.5557 0
    endloop
  endfacet
  facet normal 0 0 -1
    outer loop
      vertex 2.75 -4.76314 0
      vertex 7.07107 -7.07107 0
      vertex 6.34393 -7.7301 0
    endloop
  endfacet
  facet normal -0 0 -1
    outer loop
      vertex 8.3147 5.5557 0
      vertex 2.75 4.76314 0
      vertex 7.7301 6.34393 0
    endloop
  endfacet
  facet normal 0 0 -1
    outer loop
      vertex 2.75 -4.76314 0
      vertex 6.34393 -7.7301 0
      vertex 5.5557 -8.3147 0
    endloop
  endfacet
  facet normal -0 0 -1
    outer loop
      vertex 7.7301 6.34393 0
      vertex 2.75 4.76314 0
      vertex 7.07107 7.07107 0
    endloop
  endfacet
  facet normal -0 0 -1
    outer loop
      vertex 7.07107 7.07107 0
      vertex 2.75 4.76314 0
      vertex 6.34393 7.7301 0
    endloop
  endfacet
  facet normal 0 0 -1
    outer loop
      vertex 2.75 -4.76314 0
      vertex 5.5557 -8.3147 0
      vertex 4.71397 -8.81921 0
    endloop
  endfacet
  facet normal 0 0 -1
    outer loop
      vertex 2.75 -4.76314 0
      vertex 4.71397 -8.81921 0
      vertex 3.82683 -9.2388 0
    endloop
  endfacet
  facet normal 0 0 -1
    outer loop
      vertex 2.75 -4.76314 0
      vertex 3.82683 -9.2388 0
      vertex 2.90285 -9.5694 0
    endloop
  endfacet
  facet normal -0 0 -1
    outer loop
      vertex 8.81921 -4.71397 0
      vertex 2.75 -4.76314 0
      vertex 5.5 0 0
    endloop
  endfacet
  facet normal 0 0 -1
    outer loop
      vertex 1.9509 -9.80785 0
      vertex 2.75 -4.76314 0
      vertex 2.90285 -9.5694 0
    endloop
  endfacet
  facet normal 0 0 -1
    outer loop
      vertex 0.980171 -9.95185 0
      vertex 2.75 -4.76314 0
      vertex 1.9509 -9.80785 0
    endloop
  endfacet
  facet normal 0 0 -1
    outer loop
      vertex 0 -10 0
      vertex 2.75 -4.76314 0
      vertex 0.980171 -9.95185 0
    endloop
  endfacet
  facet normal 0 0 -1
    outer loop
      vertex -2.75 -4.76314 0
      vertex 0 -10 0
      vertex -0.980171 -9.95185 0
    endloop
  endfacet
  facet normal 0 0 -1
    outer loop
      vertex -2.75 -4.76314 0
      vertex -0.980171 -9.95185 0
      vertex -1.9509 -9.80785 0
    endloop
  endfacet
  facet normal 0 0 -1
    outer loop
      vertex 0 -10 0
      vertex -2.75 -4.76314 0
      vertex 2.75 -4.76314 0
    endloop
  endfacet
  facet normal 0 0 -1
    outer loop
      vertex -2.90285 -9.5694 0
      vertex -2.75 -4.76314 0
      vertex -1.9509 -9.80785 0
    endloop
  endfacet
  facet normal 0 0 -1
    outer loop
      vertex -3.82683 -9.2388 0
      vertex -2.75 -4.76314 0
      vertex -2.90285 -9.5694 0
    endloop
  endfacet
  facet normal 0 0 -1
    outer loop
      vertex -4.71397 -8.81921 0
      vertex -2.75 -4.76314 0
      vertex -3.82683 -9.2388 0
    endloop
  endfacet
  facet normal 0 0 -1
    outer loop
      vertex -5.5557 -8.3147 0
      vertex -2.75 -4.76314 0
      vertex -4.71397 -8.81921 0
    endloop
  endfacet
  facet normal 0 0 -1
    outer loop
      vertex -6.34393 -7.7301 0
      vertex -2.75 -4.76314 0
      vertex -5.5557 -8.3147 0
    endloop
  endfacet
  facet normal -0 0 -1
    outer loop
      vertex 6.34393 7.7301 0
      vertex 2.75 4.76314 0
      vertex 5.5557 8.3147 0
    endloop
  endfacet
  facet normal -0 0 -1
    outer loop
      vertex 5.5557 8.3147 0
      vertex 2.75 4.76314 0
      vertex 4.71397 8.81921 0
    endloop
  endfacet
  facet normal -0 0 -1
    outer loop
      vertex 4.71397 8.81921 0
      vertex 2.75 4.76314 0
      vertex 3.82683 9.2388 0
    endloop
  endfacet
  facet normal -0 0 -1
    outer loop
      vertex 3.82683 9.2388 0
      vertex 2.75 4.76314 0
      vertex 2.90285 9.5694 0
    endloop
  endfacet
  facet normal 0 0 -1
    outer loop
      vertex 2.75 4.76314 0
      vertex 1.9509 9.80785 0
      vertex 2.90285 9.5694 0
    endloop
  endfacet
  facet normal 0 0 -1
    outer loop
      vertex 2.75 4.76314 0
      vertex 0.980171 9.95185 0
      vertex 1.9509 9.80785 0
    endloop
  endfacet
  facet normal 0 0 -1
    outer loop
      vertex 2.75 4.76314 0
      vertex 0 10 0
      vertex 0.980171 9.95185 0
    endloop
  endfacet
  facet normal 0 0 -1
    outer loop
      vertex -2.75 4.76314 0
      vertex 0 10 0
      vertex 2.75 4.76314 0
    endloop
  endfacet
  facet normal 0 0 -1
    outer loop
      vertex 0 10 0
      vertex -2.75 4.76314 0
      vertex -0.980171 9.95185 0
    endloop
  endfacet
  facet normal 0 0 -1
    outer loop
      vertex -0.980171 9.95185 0
      vertex -2.75 4.76314 0
      vertex -1.9509 9.80785 0
    endloop
  endfacet
  facet normal 0 0 -1
    outer loop
      vertex -2.75 4.76314 0
      vertex -2.90285 9.5694 0
      vertex -1.9509 9.80785 0
    endloop
  endfacet
  facet normal 0 0 -1
    outer loop
      vertex -2.75 4.76314 0
      vertex -3.82683 9.2388 0
      vertex -2.90285 9.5694 0
    endloop
  endfacet
  facet normal 0 0 -1
    outer loop
      vertex -2.75 4.76314 0
      vertex -4.71397 8.81921 0
      vertex -3.82683 9.2388 0
    endloop
  endfacet
  facet normal 0 0 -1
    outer loop
      vertex -8.81921 4.71397 0
      vertex -2.75 4.76314 0
      vertex -5.5 0 0
    endloop
  endfacet
  facet normal 0 0 -1
    outer loop
      vertex -2.75 4.76314 0
      vertex -5.5557 8.3147 0
      vertex -4.71397 8.81921 0
    endloop
  endfacet
  facet normal 0 0 -1
    outer loop
      vertex -7.07107 -7.07107 0
      vertex -2.75 -4.76314 0
      vertex -6.34393 -7.7301 0
    endloop
  endfacet
  facet normal 0 0 -1
    outer loop
      vertex -7.7301 -6.34393 0
      vertex -2.75 -4.76314 0
      vertex -7.07107 -7.07107 0
    endloop
  endfacet
  facet normal 0 0 -1
    outer loop
      vertex -2.75 4.76314 0
      vertex -6.34393 7.7301 0
      vertex -5.5557 8.3147 0
    endloop
  endfacet
  facet normal 0 0 -1
    outer loop
      vertex -8.3147 -5.5557 0
      vertex -2.75 -4.76314 0
      vertex -7.7301 -6.34393 0
    endloop
  endfacet
  facet normal 0 0 -1
    outer loop
      vertex -2.75 4.76314 0
      vertex -7.07107 7.07107 0
      vertex -6.34393 7.7301 0
    endloop
  endfacet
  facet normal 0 0 -1
    outer loop
      vertex -8.81921 -4.71397 0
      vertex -2.75 -4.76314 0
      vertex -8.3147 -5.5557 0
    endloop
  endfacet
  facet normal 0 0 -1
    outer loop
      vertex -2.75 4.76314 0
      vertex -7.7301 6.34393 0
      vertex -7.07107 7.07107 0
    endloop
  endfacet
  facet normal 0 0 -1
    outer loop
      vertex -2.75 -4.76314 0
      vertex -8.81921 -4.71397 0
      vertex -5.5 0 0
    endloop
  endfacet
  facet normal 0 0 -1
    outer loop
      vertex -2.75 4.76314 0
      vertex -8.3147 5.5557 0
      vertex -7.7301 6.34393 0
    endloop
  endfacet
  facet normal 0 0 -1
    outer loop
      vertex -9.2388 -3.82683 0
      vertex -5.5 0 0
      vertex -8.81921 -4.71397 0
    endloop
  endfacet
  facet normal -0 0 -1
    outer loop
      vertex -2.75 4.76314 0
      vertex -8.81921 4.71397 0
      vertex -8.3147 5.5557 0
    endloop
  endfacet
  facet normal 0 0 -1
    outer loop
      vertex -9.5694 -2.90285 0
      vertex -5.5 0 0
      vertex -9.2388 -3.82683 0
    endloop
  endfacet
  facet normal 0 0 -1
    outer loop
      vertex -5.5 0 0
      vertex -9.2388 3.82683 0
      vertex -8.81921 4.71397 0
    endloop
  endfacet
  facet normal 0 0 -1
    outer loop
      vertex -9.80785 -1.9509 0
      vertex -5.5 0 0
      vertex -9.5694 -2.90285 0
    endloop
  endfacet
  facet normal 0 0 -1
    outer loop
      vertex -5.5 0 0
      vertex -9.5694 2.90285 0
      vertex -9.2388 3.82683 0
    endloop
  endfacet
  facet normal 0 0 -1
    outer loop
      vertex -9.95185 -0.980171 0
      vertex -5.5 0 0
      vertex -9.80785 -1.9509 0
    endloop
  endfacet
  facet normal 0 0 -1
    outer loop
      vertex -5.5 0 0
      vertex -9.80785 1.9509 0
      vertex -9.5694 2.90285 0
    endloop
  endfacet
  facet normal 0 0 -1
    outer loop
      vertex -10 0 0
      vertex -5.5 0 0
      vertex -9.95185 -0.980171 0
    endloop
  endfacet
  facet normal 0 0 -1
    outer loop
      vertex -5.5 0 0
      vertex -9.95185 0.980171 0
      vertex -9.80785 1.9509 0
    endloop
  endfacet
  facet normal 0 0 -1
    outer loop
      vertex -5.5 0 0
      vertex -10 0 0
      vertex -9.95185 0.980171 0
    endloop
  endfacet
  facet normal -0.754022 -0.55921 0.344579
    outer loop
      vertex -5.25904 -3.51398 10
      vertex -8.3147 -5.5557 0
      vertex -4.88929 -4.01254 10
    endloop
  endfacet
  facet normal -0.630425 -0.695579 0.344578
    outer loop
      vertex -4.47245 -4.47245 10
      vertex -7.07107 -7.07107 0
      vertex -6.34393 -7.7301 0
    endloop
  endfacet
  facet normal -0.910625 -0.228099 0.344578
    outer loop
      vertex -6.05265 -1.83605 10
      vertex -9.80785 -1.9509 0
      vertex -9.5694 -2.90285 0
    endloop
  endfacet
  facet normal -0.883883 -0.316253 0.344578
    outer loop
      vertex -6.05265 -1.83605 10
      vertex -9.5694 -2.90285 0
      vertex -9.2388 -3.82683 0
    endloop
  endfacet
  facet normal -0.55921 -0.754022 0.344579
    outer loop
      vertex -4.01254 -4.88929 10
      vertex -5.5557 -8.3147 0
      vertex -3.51398 -5.25904 10
    endloop
  endfacet
  facet normal 0.0460678 -0.937627 0.344578
    outer loop
      vertex 0 -6.325 10
      vertex 0 -10 0
      vertex 0.619958 -6.29454 10
    endloop
  endfacet
  facet normal 0.0460601 -0.937627 0.344578
    outer loop
      vertex 0.619958 -6.29454 10
      vertex 0 -10 0
      vertex 0.980171 -9.95185 0
    endloop
  endfacet
  facet normal 0.630425 -0.695579 0.344578
    outer loop
      vertex 7.07107 -7.07107 0
      vertex 4.47245 -4.47245 10
      vertex 6.34393 -7.7301 0
    endloop
  endfacet
  facet normal 0.805201 -0.482615 0.344578
    outer loop
      vertex 8.81921 -4.71397 0
      vertex 5.57815 -2.98158 10
      vertex 8.3147 -5.5557 0
    endloop
  endfacet
  facet normal 0.883881 -0.31626 0.344578
    outer loop
      vertex 6.05265 -1.83605 10
      vertex 5.84354 -2.42047 10
      vertex 9.2388 -3.82683 0
    endloop
  endfacet
  facet normal 0.482615 -0.805201 0.344578
    outer loop
      vertex 5.5557 -8.3147 0
      vertex 2.98158 -5.57815 10
      vertex 4.71397 -8.81921 0
    endloop
  endfacet
  facet normal 0.48262 -0.805198 0.344579
    outer loop
      vertex 3.51398 -5.25904 10
      vertex 2.98158 -5.57815 10
      vertex 5.5557 -8.3147 0
    endloop
  endfacet
  facet normal 0.228102 -0.910624 0.344577
    outer loop
      vertex 1.83605 -6.05265 10
      vertex 1.23395 -6.20347 10
      vertex 1.9509 -9.80785 0
    endloop
  endfacet
  facet normal 0.316253 -0.883883 0.344578
    outer loop
      vertex 3.82683 -9.2388 0
      vertex 1.83605 -6.05265 10
      vertex 2.90285 -9.5694 0
    endloop
  endfacet
  facet normal -0.928596 0.13775 0.344578
    outer loop
      vertex -9.80785 1.9509 0
      vertex -9.95185 0.980171 0
      vertex -6.29454 0.619958 10
    endloop
  endfacet
  facet normal -0.910624 0.228102 0.344577
    outer loop
      vertex -6.05265 1.83605 10
      vertex -9.80785 1.9509 0
      vertex -6.20347 1.23395 10
    endloop
  endfacet
  facet normal -0.848624 0.401376 0.344578
    outer loop
      vertex -5.57815 2.98158 10
      vertex -9.2388 3.82683 0
      vertex -5.84354 2.42047 10
    endloop
  endfacet
  facet normal -0.805201 0.482615 0.344578
    outer loop
      vertex -8.3147 5.5557 0
      vertex -8.81921 4.71397 0
      vertex -5.57815 2.98158 10
    endloop
  endfacet
  facet normal -0.937627 -0.0460678 0.344578
    outer loop
      vertex -6.325 0 10
      vertex -10 0 0
      vertex -6.29454 -0.619958 10
    endloop
  endfacet
  facet normal 0 0 1
    outer loop
      vertex 2.65 0 10
      vertex 6.325 0 10
      vertex 6.29454 0.619958 10
    endloop
  endfacet
  facet normal 0 0 1
    outer loop
      vertex 2.63724 0.259745 10
      vertex 6.29454 0.619958 10
      vertex 6.20347 1.23395 10
    endloop
  endfacet
  facet normal 0 0 1
    outer loop
      vertex 6.325 0 10
      vertex 2.65 0 10
      vertex 6.29454 -0.619958 10
    endloop
  endfacet
  facet normal 0 0 1
    outer loop
      vertex 2.59908 0.516989 10
      vertex 6.20347 1.23395 10
      vertex 6.05265 1.83605 10
    endloop
  endfacet
  facet normal -0 0 1
    outer loop
      vertex 2.63724 -0.259745 10
      vertex 6.29454 -0.619958 10
      vertex 2.65 0 10
    endloop
  endfacet
  facet normal 0 0 1
    outer loop
      vertex 2.53589 0.769254 10
      vertex 6.05265 1.83605 10
      vertex 5.84354 2.42047 10
    endloop
  endfacet
  facet normal 0 0 1
    outer loop
      vertex 6.29454 -0.619958 10
      vertex 2.63724 -0.259745 10
      vertex 6.20347 -1.23395 10
    endloop
  endfacet
  facet normal 0 0 1
    outer loop
      vertex 2.44828 1.01411 10
      vertex 5.84354 2.42047 10
      vertex 5.57815 2.98158 10
    endloop
  endfacet
  facet normal -0 0 1
    outer loop
      vertex 2.59908 -0.516989 10
      vertex 6.20347 -1.23395 10
      vertex 2.63724 -0.259745 10
    endloop
  endfacet
  facet normal 0 0 1
    outer loop
      vertex 2.33709 1.2492 10
      vertex 5.57815 2.98158 10
      vertex 5.25904 3.51398 10
    endloop
  endfacet
  facet normal 0 0 1
    outer loop
      vertex 6.20347 -1.23395 10
      vertex 2.59908 -0.516989 10
      vertex 6.05265 -1.83605 10
    endloop
  endfacet
  facet normal 0 0 1
    outer loop
      vertex 2.20339 1.47226 10
      vertex 5.25904 3.51398 10
      vertex 4.88929 4.01254 10
    endloop
  endfacet
  facet normal -0 0 1
    outer loop
      vertex 2.53589 -0.769254 10
      vertex 6.05265 -1.83605 10
      vertex 2.59908 -0.516989 10
    endloop
  endfacet
  facet normal 0 0 1
    outer loop
      vertex 2.04848 1.68114 10
      vertex 4.88929 4.01254 10
      vertex 4.47245 4.47245 10
    endloop
  endfacet
  facet normal 0 0 1
    outer loop
      vertex 6.05265 -1.83605 10
      vertex 2.53589 -0.769254 10
      vertex 5.84354 -2.42047 10
    endloop
  endfacet
  facet normal 0 0 1
    outer loop
      vertex 1.87383 1.87383 10
      vertex 4.47245 4.47245 10
      vertex 4.01254 4.88929 10
    endloop
  endfacet
  facet normal -0 0 1
    outer loop
      vertex 2.44828 -1.01411 10
      vertex 5.84354 -2.42047 10
      vertex 2.53589 -0.769254 10
    endloop
  endfacet
  facet normal 0 0 1
    outer loop
      vertex 1.68114 2.04848 10
      vertex 4.01254 4.88929 10
      vertex 3.51398 5.25904 10
    endloop
  endfacet
  facet normal 0 0 1
    outer loop
      vertex 5.84354 -2.42047 10
      vertex 2.44828 -1.01411 10
      vertex 5.57815 -2.98158 10
    endloop
  endfacet
  facet normal 0 0 1
    outer loop
      vertex 1.47226 2.20339 10
      vertex 3.51398 5.25904 10
      vertex 2.98158 5.57815 10
    endloop
  endfacet
  facet normal -0 0 1
    outer loop
      vertex 2.33709 -1.2492 10
      vertex 5.57815 -2.98158 10
      vertex 2.44828 -1.01411 10
    endloop
  endfacet
  facet normal 0 0 1
    outer loop
      vertex 5.57815 -2.98158 10
      vertex 2.33709 -1.2492 10
      vertex 5.25904 -3.51398 10
    endloop
  endfacet
  facet normal 0 0 1
    outer loop
      vertex 6.29454 0.619958 10
      vertex 2.63724 0.259745 10
      vertex 2.65 0 10
    endloop
  endfacet
  facet normal 0 0 1
    outer loop
      vertex 6.20347 1.23395 10
      vertex 2.59908 0.516989 10
      vertex 2.63724 0.259745 10
    endloop
  endfacet
  facet normal 0 0 1
    outer loop
      vertex 6.05265 1.83605 10
      vertex 2.53589 0.769254 10
      vertex 2.59908 0.516989 10
    endloop
  endfacet
  facet normal 0 0 1
    outer loop
      vertex 5.84354 2.42047 10
      vertex 2.44828 1.01411 10
      vertex 2.53589 0.769254 10
    endloop
  endfacet
  facet normal 0 0 1
    outer loop
      vertex 1.2492 2.33709 10
      vertex 2.98158 5.57815 10
      vertex 2.42047 5.84354 10
    endloop
  endfacet
  facet normal 0 0 1
    outer loop
      vertex 5.57815 2.98158 10
      vertex 2.33709 1.2492 10
      vertex 2.44828 1.01411 10
    endloop
  endfacet
  facet normal 0 0 1
    outer loop
      vertex 5.25904 3.51398 10
      vertex 2.20339 1.47226 10
      vertex 2.33709 1.2492 10
    endloop
  endfacet
  facet normal 0 0 1
    outer loop
      vertex 4.88929 4.01254 10
      vertex 2.04848 1.68114 10
      vertex 2.20339 1.47226 10
    endloop
  endfacet
  facet normal 0 0 1
    outer loop
      vertex 4.47245 4.47245 10
      vertex 1.87383 1.87383 10
      vertex 2.04848 1.68114 10
    endloop
  endfacet
  facet normal 0 0 1
    outer loop
      vertex 1.01411 2.44828 10
      vertex 2.42047 5.84354 10
      vertex 1.83605 6.05265 10
    endloop
  endfacet
  facet normal 0 0 1
    outer loop
      vertex 4.01254 4.88929 10
      vertex 1.68114 2.04848 10
      vertex 1.87383 1.87383 10
    endloop
  endfacet
  facet normal 0 0 1
    outer loop
      vertex 3.51398 5.25904 10
      vertex 1.47226 2.20339 10
      vertex 1.68114 2.04848 10
    endloop
  endfacet
  facet normal 0 0 1
    outer loop
      vertex 2.98158 5.57815 10
      vertex 1.2492 2.33709 10
      vertex 1.47226 2.20339 10
    endloop
  endfacet
  facet normal 0 0 1
    outer loop
      vertex 0.769254 2.53589 10
      vertex 1.83605 6.05265 10
      vertex 1.23395 6.20347 10
    endloop
  endfacet
  facet normal 0 0 1
    outer loop
      vertex 2.42047 5.84354 10
      vertex 1.01411 2.44828 10
      vertex 1.2492 2.33709 10
    endloop
  endfacet
  facet normal 0 0 1
    outer loop
      vertex 1.83605 6.05265 10
      vertex 0.769254 2.53589 10
      vertex 1.01411 2.44828 10
    endloop
  endfacet
  facet normal 0 0 1
    outer loop
      vertex 0.516989 2.59908 10
      vertex 1.23395 6.20347 10
      vertex 0.619958 6.29454 10
    endloop
  endfacet
  facet normal 0 0 1
    outer loop
      vertex 1.23395 6.20347 10
      vertex 0.516989 2.59908 10
      vertex 0.769254 2.53589 10
    endloop
  endfacet
  facet normal 0 0 1
    outer loop
      vertex 0.619958 6.29454 10
      vertex 0.259745 2.63724 10
      vertex 0.516989 2.59908 10
    endloop
  endfacet
  facet normal 0 0 1
    outer loop
      vertex 0 6.325 10
      vertex 0.259745 2.63724 10
      vertex 0.619958 6.29454 10
    endloop
  endfacet
  facet normal 0 0 1
    outer loop
      vertex 0 6.325 10
      vertex 0 2.65 10
      vertex 0.259745 2.63724 10
    endloop
  endfacet
  facet normal 0 0 1
    outer loop
      vertex 0 6.325 10
      vertex -0.259745 2.63724 10
      vertex 0 2.65 10
    endloop
  endfacet
  facet normal -0 0 1
    outer loop
      vertex -0.619958 6.29454 10
      vertex -0.259745 2.63724 10
      vertex 0 6.325 10
    endloop
  endfacet
  facet normal 0 0 1
    outer loop
      vertex -0.259745 2.63724 10
      vertex -0.619958 6.29454 10
      vertex -0.516989 2.59908 10
    endloop
  endfacet
  facet normal -0 0 1
    outer loop
      vertex -1.23395 6.20347 10
      vertex -0.516989 2.59908 10
      vertex -0.619958 6.29454 10
    endloop
  endfacet
  facet normal 0 0 1
    outer loop
      vertex -0.516989 2.59908 10
      vertex -1.23395 6.20347 10
      vertex -0.769254 2.53589 10
    endloop
  endfacet
  facet normal -0 0 1
    outer loop
      vertex -1.83605 6.05265 10
      vertex -0.769254 2.53589 10
      vertex -1.23395 6.20347 10
    endloop
  endfacet
  facet normal 0 0 1
    outer loop
      vertex -0.769254 2.53589 10
      vertex -1.83605 6.05265 10
      vertex -1.01411 2.44828 10
    endloop
  endfacet
  facet normal -0 0 1
    outer loop
      vertex -2.42047 5.84354 10
      vertex -1.01411 2.44828 10
      vertex -1.83605 6.05265 10
    endloop
  endfacet
  facet normal 0 0 1
    outer loop
      vertex -1.01411 2.44828 10
      vertex -2.42047 5.84354 10
      vertex -1.2492 2.33709 10
    endloop
  endfacet
  facet normal -0 0 1
    outer loop
      vertex -2.98158 5.57815 10
      vertex -1.2492 2.33709 10
      vertex -2.42047 5.84354 10
    endloop
  endfacet
  facet normal 0 0 1
    outer loop
      vertex -1.2492 2.33709 10
      vertex -2.98158 5.57815 10
      vertex -1.47226 2.20339 10
    endloop
  endfacet
  facet normal -0 0 1
    outer loop
      vertex -3.51398 5.25904 10
      vertex -1.47226 2.20339 10
      vertex -2.98158 5.57815 10
    endloop
  endfacet
  facet normal 0 0 1
    outer loop
      vertex -1.47226 2.20339 10
      vertex -3.51398 5.25904 10
      vertex -1.68114 2.04848 10
    endloop
  endfacet
  facet normal -0 0 1
    outer loop
      vertex -4.01254 4.88929 10
      vertex -1.68114 2.04848 10
      vertex -3.51398 5.25904 10
    endloop
  endfacet
  facet normal 0 0 1
    outer loop
      vertex -1.68114 2.04848 10
      vertex -4.01254 4.88929 10
      vertex -1.87383 1.87383 10
    endloop
  endfacet
  facet normal -0 0 1
    outer loop
      vertex -4.47245 4.47245 10
      vertex -1.87383 1.87383 10
      vertex -4.01254 4.88929 10
    endloop
  endfacet
  facet normal 0 0 1
    outer loop
      vertex -1.87383 1.87383 10
      vertex -4.47245 4.47245 10
      vertex -2.04848 1.68114 10
    endloop
  endfacet
  facet normal -0 0 1
    outer loop
      vertex -4.88929 4.01254 10
      vertex -2.04848 1.68114 10
      vertex -4.47245 4.47245 10
    endloop
  endfacet
  facet normal 0 0 1
    outer loop
      vertex -2.04848 1.68114 10
      vertex -4.88929 4.01254 10
      vertex -2.20339 1.47226 10
    endloop
  endfacet
  facet normal -0 0 1
    outer loop
      vertex -5.25904 3.51398 10
      vertex -2.20339 1.47226 10
      vertex -4.88929 4.01254 10
    endloop
  endfacet
  facet normal 0 0 1
    outer loop
      vertex -2.20339 1.47226 10
      vertex -5.25904 3.51398 10
      vertex -2.33709 1.2492 10
    endloop
  endfacet
  facet normal -0 0 1
    outer loop
      vertex 2.20339 -1.47226 10
      vertex 5.25904 -3.51398 10
      vertex 2.33709 -1.2492 10
    endloop
  endfacet
  facet normal 0 0 1
    outer loop
      vertex 5.25904 -3.51398 10
      vertex 2.20339 -1.47226 10
      vertex 4.88929 -4.01254 10
    endloop
  endfacet
  facet normal -0 0 1
    outer loop
      vertex 2.04848 -1.68114 10
      vertex 4.88929 -4.01254 10
      vertex 2.20339 -1.47226 10
    endloop
  endfacet
  facet normal 0 0 1
    outer loop
      vertex 4.88929 -4.01254 10
      vertex 2.04848 -1.68114 10
      vertex 4.47245 -4.47245 10
    endloop
  endfacet
  facet normal -0 0 1
    outer loop
      vertex 1.87383 -1.87383 10
      vertex 4.47245 -4.47245 10
      vertex 2.04848 -1.68114 10
    endloop
  endfacet
  facet normal 0 0 1
    outer loop
      vertex 4.47245 -4.47245 10
      vertex 1.87383 -1.87383 10
      vertex 4.01254 -4.88929 10
    endloop
  endfacet
  facet normal -0 0 1
    outer loop
      vertex 1.68114 -2.04848 10
      vertex 4.01254 -4.88929 10
      vertex 1.87383 -1.87383 10
    endloop
  endfacet
  facet normal 0 0 1
    outer loop
      vertex 4.01254 -4.88929 10
      vertex 1.68114 -2.04848 10
      vertex 3.51398 -5.25904 10
    endloop
  endfacet
  facet normal -0 0 1
    outer loop
      vertex 1.47226 -2.20339 10
      vertex 3.51398 -5.25904 10
      vertex 1.68114 -2.04848 10
    endloop
  endfacet
  facet normal 0 0 1
    outer loop
      vertex 3.51398 -5.25904 10
      vertex 1.47226 -2.20339 10
      vertex 2.98158 -5.57815 10
    endloop
  endfacet
  facet normal -0 0 1
    outer loop
      vertex 1.2492 -2.33709 10
      vertex 2.98158 -5.57815 10
      vertex 1.47226 -2.20339 10
    endloop
  endfacet
  facet normal 0 0 1
    outer loop
      vertex 2.98158 -5.57815 10
      vertex 1.2492 -2.33709 10
      vertex 2.42047 -5.84354 10
    endloop
  endfacet
  facet normal -0 0 1
    outer loop
      vertex 1.01411 -2.44828 10
      vertex 2.42047 -5.84354 10
      vertex 1.2492 -2.33709 10
    endloop
  endfacet
  facet normal 0 0 1
    outer loop
      vertex 2.42047 -5.84354 10
      vertex 1.01411 -2.44828 10
      vertex 1.83605 -6.05265 10
    endloop
  endfacet
  facet normal -0 0 1
    outer loop
      vertex 0.769254 -2.53589 10
      vertex 1.83605 -6.05265 10
      vertex 1.01411 -2.44828 10
    endloop
  endfacet
  facet normal 0 0 1
    outer loop
      vertex 1.83605 -6.05265 10
      vertex 0.769254 -2.53589 10
      vertex 1.23395 -6.20347 10
    endloop
  endfacet
  facet normal -0 0 1
    outer loop
      vertex 0.516989 -2.59908 10
      vertex 1.23395 -6.20347 10
      vertex 0.769254 -2.53589 10
    endloop
  endfacet
  facet normal 0 0 1
    outer loop
      vertex 1.23395 -6.20347 10
      vertex 0.516989 -2.59908 10
      vertex 0.619958 -6.29454 10
    endloop
  endfacet
  facet normal -0 0 1
    outer loop
      vertex 0.259745 -2.63724 10
      vertex 0.619958 -6.29454 10
      vertex 0.516989 -2.59908 10
    endloop
  endfacet
  facet normal -0 0 1
    outer loop
      vertex 0 -2.65 10
      vertex 0.619958 -6.29454 10
      vertex 0.259745 -2.63724 10
    endloop
  endfacet
  facet normal 0 0 1
    outer loop
      vertex 0 -2.65 10
      vertex 0 -6.325 10
      vertex 0.619958 -6.29454 10
    endloop
  endfacet
  facet normal 0 0 1
    outer loop
      vertex -0.259745 -2.63724 10
      vertex 0 -6.325 10
      vertex 0 -2.65 10
    endloop
  endfacet
  facet normal 0 0 1
    outer loop
      vertex -0.619958 -6.29454 10
      vertex -0.259745 -2.63724 10
      vertex -0.516989 -2.59908 10
    endloop
  endfacet
  facet normal 0 0 1
    outer loop
      vertex -0.259745 -2.63724 10
      vertex -0.619958 -6.29454 10
      vertex 0 -6.325 10
    endloop
  endfacet
  facet normal 0 0 1
    outer loop
      vertex -1.23395 -6.20347 10
      vertex -0.516989 -2.59908 10
      vertex -0.769254 -2.53589 10
    endloop
  endfacet
  facet normal 0 0 1
    outer loop
      vertex -1.83605 -6.05265 10
      vertex -0.769254 -2.53589 10
      vertex -1.01411 -2.44828 10
    endloop
  endfacet
  facet normal 0 0 1
    outer loop
      vertex -0.516989 -2.59908 10
      vertex -1.23395 -6.20347 10
      vertex -0.619958 -6.29454 10
    endloop
  endfacet
  facet normal 0 0 1
    outer loop
      vertex -2.42047 -5.84354 10
      vertex -1.01411 -2.44828 10
      vertex -1.2492 -2.33709 10
    endloop
  endfacet
  facet normal 0 0 1
    outer loop
      vertex -2.98158 -5.57815 10
      vertex -1.2492 -2.33709 10
      vertex -1.47226 -2.20339 10
    endloop
  endfacet
  facet normal 0 0 1
    outer loop
      vertex -3.51398 -5.25904 10
      vertex -1.47226 -2.20339 10
      vertex -1.68114 -2.04848 10
    endloop
  endfacet
  facet normal 0 0 1
    outer loop
      vertex -0.769254 -2.53589 10
      vertex -1.83605 -6.05265 10
      vertex -1.23395 -6.20347 10
    endloop
  endfacet
  facet normal 0 0 1
    outer loop
      vertex -4.01254 -4.88929 10
      vertex -1.68114 -2.04848 10
      vertex -1.87383 -1.87383 10
    endloop
  endfacet
  facet normal 0 0 1
    outer loop
      vertex -4.47245 -4.47245 10
      vertex -1.87383 -1.87383 10
      vertex -2.04848 -1.68114 10
    endloop
  endfacet
  facet normal 0 0 1
    outer loop
      vertex -4.88929 -4.01254 10
      vertex -2.04848 -1.68114 10
      vertex -2.20339 -1.47226 10
    endloop
  endfacet
  facet normal 0 0 1
    outer loop
      vertex -5.25904 -3.51398 10
      vertex -2.20339 -1.47226 10
      vertex -2.33709 -1.2492 10
    endloop
  endfacet
  facet normal 0 0 1
    outer loop
      vertex -1.01411 -2.44828 10
      vertex -2.42047 -5.84354 10
      vertex -1.83605 -6.05265 10
    endloop
  endfacet
  facet normal 0 0 1
    outer loop
      vertex -5.57815 -2.98158 10
      vertex -2.33709 -1.2492 10
      vertex -2.44828 -1.01411 10
    endloop
  endfacet
  facet normal 0 0 1
    outer loop
      vertex -5.84354 -2.42047 10
      vertex -2.44828 -1.01411 10
      vertex -2.53589 -0.769254 10
    endloop
  endfacet
  facet normal 0 0 1
    outer loop
      vertex -6.05265 -1.83605 10
      vertex -2.53589 -0.769254 10
      vertex -2.59908 -0.516989 10
    endloop
  endfacet
  facet normal 0 0 1
    outer loop
      vertex -6.20347 -1.23395 10
      vertex -2.59908 -0.516989 10
      vertex -2.63724 -0.259745 10
    endloop
  endfacet
  facet normal 0 0 1
    outer loop
      vertex -6.29454 -0.619958 10
      vertex -2.63724 -0.259745 10
      vertex -2.65 0 10
    endloop
  endfacet
  facet normal -0 0 1
    outer loop
      vertex -5.57815 2.98158 10
      vertex -2.33709 1.2492 10
      vertex -5.25904 3.51398 10
    endloop
  endfacet
  facet normal 0 0 1
    outer loop
      vertex -1.2492 -2.33709 10
      vertex -2.98158 -5.57815 10
      vertex -2.42047 -5.84354 10
    endloop
  endfacet
  facet normal 0 0 1
    outer loop
      vertex -2.33709 1.2492 10
      vertex -5.57815 2.98158 10
      vertex -2.44828 1.01411 10
    endloop
  endfacet
  facet normal 0 0 1
    outer loop
      vertex -1.47226 -2.20339 10
      vertex -3.51398 -5.25904 10
      vertex -2.98158 -5.57815 10
    endloop
  endfacet
  facet normal -0 0 1
    outer loop
      vertex -5.84354 2.42047 10
      vertex -2.44828 1.01411 10
      vertex -5.57815 2.98158 10
    endloop
  endfacet
  facet normal 0 0 1
    outer loop
      vertex -1.68114 -2.04848 10
      vertex -4.01254 -4.88929 10
      vertex -3.51398 -5.25904 10
    endloop
  endfacet
  facet normal 0 0 1
    outer loop
      vertex -2.44828 1.01411 10
      vertex -5.84354 2.42047 10
      vertex -2.53589 0.769254 10
    endloop
  endfacet
  facet normal 0 0 1
    outer loop
      vertex -1.87383 -1.87383 10
      vertex -4.47245 -4.47245 10
      vertex -4.01254 -4.88929 10
    endloop
  endfacet
  facet normal -0 0 1
    outer loop
      vertex -6.05265 1.83605 10
      vertex -2.53589 0.769254 10
      vertex -5.84354 2.42047 10
    endloop
  endfacet
  facet normal 0 0 1
    outer loop
      vertex -2.04848 -1.68114 10
      vertex -4.88929 -4.01254 10
      vertex -4.47245 -4.47245 10
    endloop
  endfacet
  facet normal 0 0 1
    outer loop
      vertex -2.53589 0.769254 10
      vertex -6.05265 1.83605 10
      vertex -2.59908 0.516989 10
    endloop
  endfacet
  facet normal 0 0 1
    outer loop
      vertex -2.20339 -1.47226 10
      vertex -5.25904 -3.51398 10
      vertex -4.88929 -4.01254 10
    endloop
  endfacet
  facet normal -0 0 1
    outer loop
      vertex -6.20347 1.23395 10
      vertex -2.59908 0.516989 10
      vertex -6.05265 1.83605 10
    endloop
  endfacet
  facet normal 0 0 1
    outer loop
      vertex -2.33709 -1.2492 10
      vertex -5.57815 -2.98158 10
      vertex -5.25904 -3.51398 10
    endloop
  endfacet
  facet normal 0 0 1
    outer loop
      vertex -2.59908 0.516989 10
      vertex -6.20347 1.23395 10
      vertex -2.63724 0.259745 10
    endloop
  endfacet
  facet normal 0 0 1
    outer loop
      vertex -2.44828 -1.01411 10
      vertex -5.84354 -2.42047 10
      vertex -5.57815 -2.98158 10
    endloop
  endfacet
  facet normal -0 0 1
    outer loop
      vertex -6.29454 0.619958 10
      vertex -2.63724 0.259745 10
      vertex -6.20347 1.23395 10
    endloop
  endfacet
  facet normal 0 0 1
    outer loop
      vertex -2.53589 -0.769254 10
      vertex -6.05265 -1.83605 10
      vertex -5.84354 -2.42047 10
    endloop
  endfacet
  facet normal 0 0 1
    outer loop
      vertex -2.63724 0.259745 10
      vertex -6.29454 0.619958 10
      vertex -2.65 0 10
    endloop
  endfacet
  facet normal 0 0 1
    outer loop
      vertex -2.59908 -0.516989 10
      vertex -6.20347 -1.23395 10
      vertex -6.05265 -1.83605 10
    endloop
  endfacet
  facet normal 0 0 1
    outer loop
      vertex -6.325 0 10
      vertex -2.65 0 10
      vertex -6.29454 0.619958 10
    endloop
  endfacet
  facet normal 0 0 1
    outer loop
      vertex -2.63724 -0.259745 10
      vertex -6.29454 -0.619958 10
      vertex -6.20347 -1.23395 10
    endloop
  endfacet
  facet normal 0 0 1
    outer loop
      vertex -2.65 0 10
      vertex -6.325 0 10
      vertex -6.29454 -0.619958 10
    endloop
  endfacet
  facet normal -0.754022 0.55921 0.344579
    outer loop
      vertex -4.88929 4.01254 10
      vertex -8.3147 5.5557 0
      vertex -5.25904 3.51398 10
    endloop
  endfacet
  facet normal -0.31626 0.883881 0.344578
    outer loop
      vertex -1.83605 6.05265 10
      vertex -3.82683 9.2388 0
      vertex -2.42047 5.84354 10
    endloop
  endfacet
  facet normal -0.0460601 0.937627 0.344578
    outer loop
      vertex 0 10 0
      vertex -0.980171 9.95185 0
      vertex -0.619958 6.29454 10
    endloop
  endfacet
  facet normal 0.805201 0.482615 0.344578
    outer loop
      vertex 8.3147 5.5557 0
      vertex 5.57815 2.98158 10
      vertex 8.81921 4.71397 0
    endloop
  endfacet
  facet normal 0.805198 0.48262 0.344579
    outer loop
      vertex 8.3147 5.5557 0
      vertex 5.25904 3.51398 10
      vertex 5.57815 2.98158 10
    endloop
  endfacet
  facet normal 0.695579 0.630425 0.344578
    outer loop
      vertex 7.07107 7.07107 0
      vertex 4.47245 4.47245 10
      vertex 7.7301 6.34393 0
    endloop
  endfacet
  facet normal 0.754013 0.559223 0.344578
    outer loop
      vertex 7.7301 6.34393 0
      vertex 4.88929 4.01254 10
      vertex 8.3147 5.5557 0
    endloop
  endfacet
  facet normal 0.928599 0.137734 0.344577
    outer loop
      vertex 9.80785 1.9509 0
      vertex 6.20347 1.23395 10
      vertex 6.29454 0.619958 10
    endloop
  endfacet
  facet normal 0.559223 0.754013 0.344578
    outer loop
      vertex 5.5557 8.3147 0
      vertex 4.01254 4.88929 10
      vertex 6.34393 7.7301 0
    endloop
  endfacet
  facet normal 0.401374 0.848625 0.344578
    outer loop
      vertex 3.82683 9.2388 0
      vertex 2.98158 5.57815 10
      vertex 4.71397 8.81921 0
    endloop
  endfacet
  facet normal 0.31626 0.883881 0.344578
    outer loop
      vertex 3.82683 9.2388 0
      vertex 1.83605 6.05265 10
      vertex 2.42047 5.84354 10
    endloop
  endfacet
  facet normal 0.137734 0.928599 0.344577
    outer loop
      vertex 1.9509 9.80785 0
      vertex 0.619958 6.29454 10
      vertex 1.23395 6.20347 10
    endloop
  endfacet
  facet normal 0.0460601 0.937627 0.344578
    outer loop
      vertex 0.980171 9.95185 0
      vertex 0 10 0
      vertex 0.619958 6.29454 10
    endloop
  endfacet
  facet normal -0.805201 -0.482615 0.344578
    outer loop
      vertex -5.57815 -2.98158 10
      vertex -8.81921 -4.71397 0
      vertex -8.3147 -5.5557 0
    endloop
  endfacet
  facet normal -0.805198 -0.48262 0.344579
    outer loop
      vertex -5.57815 -2.98158 10
      vertex -8.3147 -5.5557 0
      vertex -5.25904 -3.51398 10
    endloop
  endfacet
  facet normal -0.695579 -0.630425 0.344578
    outer loop
      vertex -4.47245 -4.47245 10
      vertex -7.7301 -6.34393 0
      vertex -7.07107 -7.07107 0
    endloop
  endfacet
  facet normal -0.754013 -0.559223 0.344578
    outer loop
      vertex -4.88929 -4.01254 10
      vertex -8.3147 -5.5557 0
      vertex -7.7301 -6.34393 0
    endloop
  endfacet
  facet normal -0.928599 -0.137734 0.344577
    outer loop
      vertex -6.29454 -0.619958 10
      vertex -9.80785 -1.9509 0
      vertex -6.20347 -1.23395 10
    endloop
  endfacet
  facet normal -0.559223 -0.754013 0.344578
    outer loop
      vertex -4.01254 -4.88929 10
      vertex -6.34393 -7.7301 0
      vertex -5.5557 -8.3147 0
    endloop
  endfacet
  facet normal -0.401374 -0.848625 0.344578
    outer loop
      vertex -2.98158 -5.57815 10
      vertex -4.71397 -8.81921 0
      vertex -3.82683 -9.2388 0
    endloop
  endfacet
  facet normal -0.31626 -0.883881 0.344578
    outer loop
      vertex -2.42047 -5.84354 10
      vertex -3.82683 -9.2388 0
      vertex -1.83605 -6.05265 10
    endloop
  endfacet
  facet normal -0.137734 -0.928599 0.344577
    outer loop
      vertex -1.23395 -6.20347 10
      vertex -1.9509 -9.80785 0
      vertex -0.619958 -6.29454 10
    endloop
  endfacet
  facet normal -0.0460601 -0.937627 0.344578
    outer loop
      vertex -0.619958 -6.29454 10
      vertex -0.980171 -9.95185 0
      vertex 0 -10 0
    endloop
  endfacet
  facet normal 0.559223 -0.754013 0.344578
    outer loop
      vertex 6.34393 -7.7301 0
      vertex 4.01254 -4.88929 10
      vertex 5.5557 -8.3147 0
    endloop
  endfacet
  facet normal 0.630433 -0.695572 0.344577
    outer loop
      vertex 4.47245 -4.47245 10
      vertex 4.01254 -4.88929 10
      vertex 6.34393 -7.7301 0
    endloop
  endfacet
  facet normal 0.754022 -0.55921 0.344579
    outer loop
      vertex 5.25904 -3.51398 10
      vertex 4.88929 -4.01254 10
      vertex 8.3147 -5.5557 0
    endloop
  endfacet
  facet normal 0.848625 -0.401374 0.344578
    outer loop
      vertex 9.2388 -3.82683 0
      vertex 5.57815 -2.98158 10
      vertex 8.81921 -4.71397 0
    endloop
  endfacet
  facet normal 0.848624 -0.401376 0.344578
    outer loop
      vertex 5.84354 -2.42047 10
      vertex 5.57815 -2.98158 10
      vertex 9.2388 -3.82683 0
    endloop
  endfacet
  facet normal 0.883883 -0.316253 0.344578
    outer loop
      vertex 9.5694 -2.90285 0
      vertex 6.05265 -1.83605 10
      vertex 9.2388 -3.82683 0
    endloop
  endfacet
  facet normal 0.910625 -0.228099 0.344578
    outer loop
      vertex 9.80785 -1.9509 0
      vertex 6.05265 -1.83605 10
      vertex 9.5694 -2.90285 0
    endloop
  endfacet
  facet normal 0.137734 -0.928599 0.344577
    outer loop
      vertex 1.23395 -6.20347 10
      vertex 0.619958 -6.29454 10
      vertex 1.9509 -9.80785 0
    endloop
  endfacet
  facet normal 0.228099 -0.910625 0.344578
    outer loop
      vertex 2.90285 -9.5694 0
      vertex 1.83605 -6.05265 10
      vertex 1.9509 -9.80785 0
    endloop
  endfacet
  facet normal -0.910625 0.228099 0.344578
    outer loop
      vertex -9.5694 2.90285 0
      vertex -9.80785 1.9509 0
      vertex -6.05265 1.83605 10
    endloop
  endfacet
  facet normal -0.937627 0.0460601 0.344578
    outer loop
      vertex -9.95185 0.980171 0
      vertex -10 0 0
      vertex -6.29454 0.619958 10
    endloop
  endfacet
  facet normal -0.928599 0.137734 0.344577
    outer loop
      vertex -6.20347 1.23395 10
      vertex -9.80785 1.9509 0
      vertex -6.29454 0.619958 10
    endloop
  endfacet
  facet normal -0.848625 0.401374 0.344578
    outer loop
      vertex -8.81921 4.71397 0
      vertex -9.2388 3.82683 0
      vertex -5.57815 2.98158 10
    endloop
  endfacet
  facet normal -0.805198 0.48262 0.344579
    outer loop
      vertex -5.25904 3.51398 10
      vertex -8.3147 5.5557 0
      vertex -5.57815 2.98158 10
    endloop
  endfacet
  facet normal -0.630433 0.695572 0.344577
    outer loop
      vertex -4.01254 4.88929 10
      vertex -6.34393 7.7301 0
      vertex -4.47245 4.47245 10
    endloop
  endfacet
  facet normal -0.630425 0.695579 0.344578
    outer loop
      vertex -6.34393 7.7301 0
      vertex -7.07107 7.07107 0
      vertex -4.47245 4.47245 10
    endloop
  endfacet
  facet normal -0.401376 0.848624 0.344578
    outer loop
      vertex -2.42047 5.84354 10
      vertex -3.82683 9.2388 0
      vertex -2.98158 5.57815 10
    endloop
  endfacet
  facet normal -0.228099 0.910625 0.344578
    outer loop
      vertex -1.9509 9.80785 0
      vertex -2.90285 9.5694 0
      vertex -1.83605 6.05265 10
    endloop
  endfacet
  facet normal 0.695572 0.630433 0.344577
    outer loop
      vertex 7.7301 6.34393 0
      vertex 4.47245 4.47245 10
      vertex 4.88929 4.01254 10
    endloop
  endfacet
  facet normal 0.401376 0.848624 0.344578
    outer loop
      vertex 3.82683 9.2388 0
      vertex 2.42047 5.84354 10
      vertex 2.98158 5.57815 10
    endloop
  endfacet
  facet normal 0.228099 0.910625 0.344578
    outer loop
      vertex 1.9509 9.80785 0
      vertex 1.83605 6.05265 10
      vertex 2.90285 9.5694 0
    endloop
  endfacet
  facet normal 0.316253 0.883883 0.344578
    outer loop
      vertex 2.90285 9.5694 0
      vertex 1.83605 6.05265 10
      vertex 3.82683 9.2388 0
    endloop
  endfacet
  facet normal 0.0460678 0.937627 0.344578
    outer loop
      vertex 0 10 0
      vertex 0 6.325 10
      vertex 0.619958 6.29454 10
    endloop
  endfacet
  facet normal 0.13775 0.928596 0.344578
    outer loop
      vertex 0.980171 9.95185 0
      vertex 0.619958 6.29454 10
      vertex 1.9509 9.80785 0
    endloop
  endfacet
  facet normal -0.695572 -0.630433 0.344577
    outer loop
      vertex -4.88929 -4.01254 10
      vertex -7.7301 -6.34393 0
      vertex -4.47245 -4.47245 10
    endloop
  endfacet
  facet normal -0.401376 -0.848624 0.344578
    outer loop
      vertex -2.98158 -5.57815 10
      vertex -3.82683 -9.2388 0
      vertex -2.42047 -5.84354 10
    endloop
  endfacet
  facet normal -0.228099 -0.910625 0.344578
    outer loop
      vertex -1.83605 -6.05265 10
      vertex -2.90285 -9.5694 0
      vertex -1.9509 -9.80785 0
    endloop
  endfacet
  facet normal -0.316253 -0.883883 0.344578
    outer loop
      vertex -1.83605 -6.05265 10
      vertex -3.82683 -9.2388 0
      vertex -2.90285 -9.5694 0
    endloop
  endfacet
  facet normal -0.0460678 -0.937627 0.344578
    outer loop
      vertex 0 -6.325 10
      vertex -0.619958 -6.29454 10
      vertex 0 -10 0
    endloop
  endfacet
  facet normal -0.13775 -0.928596 0.344578
    outer loop
      vertex -0.619958 -6.29454 10
      vertex -1.9509 -9.80785 0
      vertex -0.980171 -9.95185 0
    endloop
  endfacet
  facet normal 0.401376 -0.848624 0.344578
    outer loop
      vertex 2.98158 -5.57815 10
      vertex 2.42047 -5.84354 10
      vertex 3.82683 -9.2388 0
    endloop
  endfacet
  facet normal 0.805198 -0.48262 0.344579
    outer loop
      vertex 5.57815 -2.98158 10
      vertex 5.25904 -3.51398 10
      vertex 8.3147 -5.5557 0
    endloop
  endfacet
  facet normal 0.910624 -0.228102 0.344577
    outer loop
      vertex 6.20347 -1.23395 10
      vertex 6.05265 -1.83605 10
      vertex 9.80785 -1.9509 0
    endloop
  endfacet
  facet normal -0.883881 0.31626 0.344578
    outer loop
      vertex -5.84354 2.42047 10
      vertex -9.2388 3.82683 0
      vertex -6.05265 1.83605 10
    endloop
  endfacet
  facet normal -0.695572 0.630433 0.344577
    outer loop
      vertex -4.47245 4.47245 10
      vertex -7.7301 6.34393 0
      vertex -4.88929 4.01254 10
    endloop
  endfacet
  facet normal -0.754013 0.559223 0.344578
    outer loop
      vertex -7.7301 6.34393 0
      vertex -8.3147 5.5557 0
      vertex -4.88929 4.01254 10
    endloop
  endfacet
  facet normal -0.695579 0.630425 0.344578
    outer loop
      vertex -7.07107 7.07107 0
      vertex -7.7301 6.34393 0
      vertex -4.47245 4.47245 10
    endloop
  endfacet
  facet normal -0.482615 0.805201 0.344578
    outer loop
      vertex -4.71397 8.81921 0
      vertex -5.5557 8.3147 0
      vertex -2.98158 5.57815 10
    endloop
  endfacet
  facet normal -0.137734 0.928599 0.344577
    outer loop
      vertex -0.619958 6.29454 10
      vertex -1.9509 9.80785 0
      vertex -1.23395 6.20347 10
    endloop
  endfacet
  facet normal -0.228102 0.910624 0.344577
    outer loop
      vertex -1.23395 6.20347 10
      vertex -1.9509 9.80785 0
      vertex -1.83605 6.05265 10
    endloop
  endfacet
  facet normal -0.316253 0.883883 0.344578
    outer loop
      vertex -2.90285 9.5694 0
      vertex -3.82683 9.2388 0
      vertex -1.83605 6.05265 10
    endloop
  endfacet
  facet normal 0.883881 0.31626 0.344578
    outer loop
      vertex 9.2388 3.82683 0
      vertex 5.84354 2.42047 10
      vertex 6.05265 1.83605 10
    endloop
  endfacet
  facet normal 0.848624 0.401376 0.344578
    outer loop
      vertex 9.2388 3.82683 0
      vertex 5.57815 2.98158 10
      vertex 5.84354 2.42047 10
    endloop
  endfacet
  facet normal 0.48262 0.805198 0.344579
    outer loop
      vertex 5.5557 8.3147 0
      vertex 2.98158 5.57815 10
      vertex 3.51398 5.25904 10
    endloop
  endfacet
  facet normal 0.482615 0.805201 0.344578
    outer loop
      vertex 4.71397 8.81921 0
      vertex 2.98158 5.57815 10
      vertex 5.5557 8.3147 0
    endloop
  endfacet
  facet normal 0.228102 0.910624 0.344577
    outer loop
      vertex 1.9509 9.80785 0
      vertex 1.23395 6.20347 10
      vertex 1.83605 6.05265 10
    endloop
  endfacet
  facet normal -0.883881 -0.31626 0.344578
    outer loop
      vertex -6.05265 -1.83605 10
      vertex -9.2388 -3.82683 0
      vertex -5.84354 -2.42047 10
    endloop
  endfacet
  facet normal -0.848624 -0.401376 0.344578
    outer loop
      vertex -5.84354 -2.42047 10
      vertex -9.2388 -3.82683 0
      vertex -5.57815 -2.98158 10
    endloop
  endfacet
  facet normal -0.48262 -0.805198 0.344579
    outer loop
      vertex -3.51398 -5.25904 10
      vertex -5.5557 -8.3147 0
      vertex -2.98158 -5.57815 10
    endloop
  endfacet
  facet normal -0.482615 -0.805201 0.344578
    outer loop
      vertex -2.98158 -5.57815 10
      vertex -5.5557 -8.3147 0
      vertex -4.71397 -8.81921 0
    endloop
  endfacet
  facet normal -0.228102 -0.910624 0.344577
    outer loop
      vertex -1.83605 -6.05265 10
      vertex -1.9509 -9.80785 0
      vertex -1.23395 -6.20347 10
    endloop
  endfacet
  facet normal 0.55921 -0.754022 0.344579
    outer loop
      vertex 4.01254 -4.88929 10
      vertex 3.51398 -5.25904 10
      vertex 5.5557 -8.3147 0
    endloop
  endfacet
  facet normal -0.559223 0.754013 0.344578
    outer loop
      vertex -5.5557 8.3147 0
      vertex -6.34393 7.7301 0
      vertex -4.01254 4.88929 10
    endloop
  endfacet
  facet normal -0.48262 0.805198 0.344579
    outer loop
      vertex -2.98158 5.57815 10
      vertex -5.5557 8.3147 0
      vertex -3.51398 5.25904 10
    endloop
  endfacet
  facet normal -0.55921 0.754022 0.344579
    outer loop
      vertex -3.51398 5.25904 10
      vertex -5.5557 8.3147 0
      vertex -4.01254 4.88929 10
    endloop
  endfacet
  facet normal -0.998796 -0.0490659 -1.26924e-19
    outer loop
      vertex 2.65 0 6.26667
      vertex 2.63724 0.259745 10
      vertex 2.63724 0.259745 6.20569
    endloop
  endfacet
  facet normal -0.998796 -0.0490659 -1.28997e-19
    outer loop
      vertex 2.63724 0.259745 10
      vertex 2.65 0 6.26667
      vertex 2.65 0 10
    endloop
  endfacet
  facet normal 0.998796 -0.0490659 0
    outer loop
      vertex -2.65 0 6.26667
      vertex -2.63724 0.259745 10
      vertex -2.65 0 10
    endloop
  endfacet
  facet normal 0.998796 -0.0490659 0
    outer loop
      vertex -2.63724 0.259745 10
      vertex -2.65 0 6.26667
      vertex -2.63724 0.259745 6.20569
    endloop
  endfacet
  facet normal 0.0490659 -0.998796 0
    outer loop
      vertex -0.259745 2.63724 6.09101
      vertex 0 2.65 10
      vertex -0.259745 2.63724 10
    endloop
  endfacet
  facet normal 0.0490659 -0.998796 0
    outer loop
      vertex 0 2.65 10
      vertex -0.259745 2.63724 6.09101
      vertex 0 2.65 6.08446
    endloop
  endfacet
  facet normal -0.671572 -0.74094 0
    outer loop
      vertex 1.68114 2.04848 6.17163
      vertex 1.87383 1.87383 10
      vertex 1.68114 2.04848 10
    endloop
  endfacet
  facet normal -0.671572 -0.74094 3.57138e-09
    outer loop
      vertex 1.73476 1.99988 6.16027
      vertex 1.87383 1.87383 10
      vertex 1.68114 2.04848 6.17163
    endloop
  endfacet
  facet normal -0.671572 -0.74094 -0
    outer loop
      vertex 1.87383 1.87383 10
      vertex 1.73476 1.99988 6.16027
      vertex 1.87383 1.87383 6.1308
    endloop
  endfacet
  facet normal 0.671572 -0.74094 -1.01702e-19
    outer loop
      vertex -1.87383 1.87383 10
      vertex -1.68114 2.04848 6.17163
      vertex -1.68114 2.04848 10
    endloop
  endfacet
  facet normal 0.671572 -0.74094 3.57138e-09
    outer loop
      vertex -1.87383 1.87383 10
      vertex -1.73476 1.99988 6.16027
      vertex -1.68114 2.04848 6.17163
    endloop
  endfacet
  facet normal 0.671572 -0.74094 1.44692e-18
    outer loop
      vertex -1.73476 1.99988 6.16027
      vertex -1.87383 1.87383 10
      vertex -1.87383 1.87383 6.1308
    endloop
  endfacet
  facet normal 0.336887 -0.941545 0
    outer loop
      vertex -1.01411 2.44828 6.18799
      vertex -0.769254 2.53589 10
      vertex -1.01411 2.44828 10
    endloop
  endfacet
  facet normal 0.336887 -0.941545 0
    outer loop
      vertex -0.769254 2.53589 10
      vertex -1.01411 2.44828 6.18799
      vertex -0.769254 2.53589 6.14302
    endloop
  endfacet
  facet normal -0.903988 -0.427557 1.64817e-18
    outer loop
      vertex 2.44828 1.01411 6.0961
      vertex 2.33709 1.2492 10
      vertex 2.33709 1.2492 6.08519
    endloop
  endfacet
  facet normal -0.903988 -0.427557 1.65278e-18
    outer loop
      vertex 2.33709 1.2492 10
      vertex 2.44828 1.01411 6.0961
      vertex 2.44828 1.01411 10
    endloop
  endfacet
  facet normal -0.336887 -0.941545 -1.53789e-18
    outer loop
      vertex 0.769254 2.53589 10
      vertex 1.01411 2.44828 6.18799
      vertex 1.01411 2.44828 10
    endloop
  endfacet
  facet normal -0.336887 -0.941545 -1.51995e-18
    outer loop
      vertex 1.01411 2.44828 6.18799
      vertex 0.769254 2.53589 10
      vertex 0.769254 2.53589 6.14302
    endloop
  endfacet
  facet normal 0.857724 -0.514111 -3.20461e-19
    outer loop
      vertex -2.33709 1.2492 10
      vertex -2.20339 1.47226 6.08738
      vertex -2.20339 1.47226 10
    endloop
  endfacet
  facet normal 0.857724 -0.514111 -3.20282e-19
    outer loop
      vertex -2.20339 1.47226 6.08738
      vertex -2.33709 1.2492 10
      vertex -2.33709 1.2492 6.08519
    endloop
  endfacet
  facet normal 0.803219 -0.595685 3.24328e-18
    outer loop
      vertex -2.20339 1.47226 10
      vertex -2.04848 1.68114 6.10263
      vertex -2.04848 1.68114 10
    endloop
  endfacet
  facet normal 0.803219 -0.595685 3.23064e-18
    outer loop
      vertex -2.04848 1.68114 6.10263
      vertex -2.20339 1.47226 10
      vertex -2.20339 1.47226 6.08738
    endloop
  endfacet
  facet normal 0.146736 -0.989176 0
    outer loop
      vertex -0.516989 2.59908 6.1106
      vertex -0.259745 2.63724 10
      vertex -0.516989 2.59908 10
    endloop
  endfacet
  facet normal 0.146736 -0.989176 0
    outer loop
      vertex -0.259745 2.63724 10
      vertex -0.516989 2.59908 6.1106
      vertex -0.259745 2.63724 6.09101
    endloop
  endfacet
  facet normal -0.146736 0.989176 0
    outer loop
      vertex 0.516989 -2.59908 6.1106
      vertex 0.259745 -2.63724 10
      vertex 0.516989 -2.59908 10
    endloop
  endfacet
  facet normal -0.146736 0.989176 0
    outer loop
      vertex 0.259745 -2.63724 10
      vertex 0.516989 -2.59908 6.1106
      vertex 0.259745 -2.63724 6.09101
    endloop
  endfacet
  facet normal -0.97003 -0.242983 -1.57128e-18
    outer loop
      vertex 2.59908 0.516989 6.15664
      vertex 2.53589 0.769254 10
      vertex 2.53589 0.769254 6.11999
    endloop
  endfacet
  facet normal -0.97003 -0.242983 -1.58626e-18
    outer loop
      vertex 2.53589 0.769254 10
      vertex 2.59908 0.516989 6.15664
      vertex 2.59908 0.516989 10
    endloop
  endfacet
  facet normal -0.989176 -0.146736 -4.38181e-19
    outer loop
      vertex 2.63724 0.259745 6.20569
      vertex 2.59908 0.516989 10
      vertex 2.59908 0.516989 6.15664
    endloop
  endfacet
  facet normal -0.989176 -0.146736 -4.43845e-19
    outer loop
      vertex 2.59908 0.516989 10
      vertex 2.63724 0.259745 6.20569
      vertex 2.63724 0.259745 10
    endloop
  endfacet
  facet normal -0.941545 -0.336887 -1.50169e-18
    outer loop
      vertex 2.53589 0.769254 6.11999
      vertex 2.44828 1.01411 10
      vertex 2.44828 1.01411 6.0961
    endloop
  endfacet
  facet normal -0.941545 -0.336887 -1.51093e-18
    outer loop
      vertex 2.44828 1.01411 10
      vertex 2.53589 0.769254 6.11999
      vertex 2.53589 0.769254 10
    endloop
  endfacet
  facet normal -0.803219 -0.595685 -0
    outer loop
      vertex 2.20339 1.47226 10
      vertex 2.04848 1.68114 6.10263
      vertex 2.20339 1.47226 6.08738
    endloop
  endfacet
  facet normal -0.803219 -0.595685 0
    outer loop
      vertex 2.04848 1.68114 6.10263
      vertex 2.20339 1.47226 10
      vertex 2.04848 1.68114 10
    endloop
  endfacet
  facet normal -0.74094 -0.671572 -0
    outer loop
      vertex 2.04848 1.68114 10
      vertex 1.87383 1.87383 6.1308
      vertex 2.04848 1.68114 6.10263
    endloop
  endfacet
  facet normal -0.74094 -0.671572 0
    outer loop
      vertex 1.87383 1.87383 6.1308
      vertex 2.04848 1.68114 10
      vertex 1.87383 1.87383 10
    endloop
  endfacet
  facet normal -0.857724 -0.514111 3.20461e-19
    outer loop
      vertex 2.33709 1.2492 6.08519
      vertex 2.20339 1.47226 10
      vertex 2.20339 1.47226 6.08738
    endloop
  endfacet
  facet normal -0.857724 -0.514111 3.20282e-19
    outer loop
      vertex 2.20339 1.47226 10
      vertex 2.33709 1.2492 6.08519
      vertex 2.33709 1.2492 10
    endloop
  endfacet
  facet normal -0.146736 -0.989176 -4.32994e-19
    outer loop
      vertex 0.259745 2.63724 10
      vertex 0.516989 2.59908 6.1106
      vertex 0.516989 2.59908 10
    endloop
  endfacet
  facet normal -0.146736 -0.989176 -4.30824e-19
    outer loop
      vertex 0.516989 2.59908 6.1106
      vertex 0.259745 2.63724 10
      vertex 0.259745 2.63724 6.09101
    endloop
  endfacet
  facet normal -0.0490659 -0.998796 -1.232e-19
    outer loop
      vertex 0 2.65 10
      vertex 0.259745 2.63724 6.09101
      vertex 0.259745 2.63724 10
    endloop
  endfacet
  facet normal -0.0490659 -0.998796 -1.22994e-19
    outer loop
      vertex 0.259745 2.63724 6.09101
      vertex 0 2.65 10
      vertex 0 2.65 6.08446
    endloop
  endfacet
  facet normal -0.595685 -0.803219 0
    outer loop
      vertex 1.47226 2.20339 6.22472
      vertex 1.68114 2.04848 10
      vertex 1.47226 2.20339 10
    endloop
  endfacet
  facet normal -0.595685 -0.803219 -0
    outer loop
      vertex 1.68114 2.04848 10
      vertex 1.47226 2.20339 6.22472
      vertex 1.68114 2.04848 6.17163
    endloop
  endfacet
  facet normal -0.427557 -0.903988 1.71834e-18
    outer loop
      vertex 1.01411 2.44828 10
      vertex 1.2492 2.33709 6.24505
      vertex 1.2492 2.33709 10
    endloop
  endfacet
  facet normal -0.427557 -0.903988 1.69262e-18
    outer loop
      vertex 1.2492 2.33709 6.24505
      vertex 1.01411 2.44828 10
      vertex 1.01411 2.44828 6.18799
    endloop
  endfacet
  facet normal -0.514111 -0.857724 -6.0913e-07
    outer loop
      vertex 1.2492 2.33709 10
      vertex 1.32358 2.29251 6.26793
      vertex 1.47226 2.20339 10
    endloop
  endfacet
  facet normal -0.514089 -0.857737 5.73075e-19
    outer loop
      vertex 1.32358 2.29251 6.26793
      vertex 1.2492 2.33709 10
      vertex 1.2492 2.33709 6.24505
    endloop
  endfacet
  facet normal -0.514122 -0.857717 -0
    outer loop
      vertex 1.47226 2.20339 10
      vertex 1.32358 2.29251 6.26793
      vertex 1.47226 2.20339 6.22472
    endloop
  endfacet
  facet normal 0.74094 -0.671572 -1.00629e-19
    outer loop
      vertex -2.04848 1.68114 10
      vertex -1.87383 1.87383 6.1308
      vertex -1.87383 1.87383 10
    endloop
  endfacet
  facet normal 0.74094 -0.671572 -9.99016e-20
    outer loop
      vertex -1.87383 1.87383 6.1308
      vertex -2.04848 1.68114 10
      vertex -2.04848 1.68114 6.10263
    endloop
  endfacet
  facet normal 0.903988 -0.427557 0
    outer loop
      vertex -2.44828 1.01411 6.0961
      vertex -2.33709 1.2492 10
      vertex -2.44828 1.01411 10
    endloop
  endfacet
  facet normal 0.903988 -0.427557 0
    outer loop
      vertex -2.33709 1.2492 10
      vertex -2.44828 1.01411 6.0961
      vertex -2.33709 1.2492 6.08519
    endloop
  endfacet
  facet normal 0.97003 -0.242983 0
    outer loop
      vertex -2.59908 0.516989 6.15664
      vertex -2.53589 0.769254 10
      vertex -2.59908 0.516989 10
    endloop
  endfacet
  facet normal 0.97003 -0.242983 0
    outer loop
      vertex -2.53589 0.769254 10
      vertex -2.59908 0.516989 6.15664
      vertex -2.53589 0.769254 6.11999
    endloop
  endfacet
  facet normal 0.427557 -0.903988 0
    outer loop
      vertex -1.2492 2.33709 6.24505
      vertex -1.01411 2.44828 10
      vertex -1.2492 2.33709 10
    endloop
  endfacet
  facet normal 0.427557 -0.903988 0
    outer loop
      vertex -1.01411 2.44828 10
      vertex -1.2492 2.33709 6.24505
      vertex -1.01411 2.44828 6.18799
    endloop
  endfacet
  facet normal 0.514111 -0.857724 -6.0913e-07
    outer loop
      vertex -1.47226 2.20339 10
      vertex -1.32358 2.29251 6.26793
      vertex -1.2492 2.33709 10
    endloop
  endfacet
  facet normal 0.514122 -0.857717 -7.69819e-19
    outer loop
      vertex -1.32358 2.29251 6.26793
      vertex -1.47226 2.20339 10
      vertex -1.47226 2.20339 6.22472
    endloop
  endfacet
  facet normal 0.514089 -0.857737 0
    outer loop
      vertex -1.2492 2.33709 10
      vertex -1.32358 2.29251 6.26793
      vertex -1.2492 2.33709 6.24505
    endloop
  endfacet
  facet normal 0.595685 -0.803219 3.34817e-18
    outer loop
      vertex -1.68114 2.04848 10
      vertex -1.47226 2.20339 6.22472
      vertex -1.47226 2.20339 10
    endloop
  endfacet
  facet normal 0.595685 -0.803219 3.30174e-18
    outer loop
      vertex -1.47226 2.20339 6.22472
      vertex -1.68114 2.04848 10
      vertex -1.68114 2.04848 6.17163
    endloop
  endfacet
  facet normal 0.242983 -0.97003 0
    outer loop
      vertex -0.769254 2.53589 6.14302
      vertex -0.516989 2.59908 10
      vertex -0.769254 2.53589 10
    endloop
  endfacet
  facet normal 0.242983 -0.97003 0
    outer loop
      vertex -0.516989 2.59908 10
      vertex -0.769254 2.53589 6.14302
      vertex -0.516989 2.59908 6.1106
    endloop
  endfacet
  facet normal -0.998796 0.0490659 0
    outer loop
      vertex 2.63724 -0.259745 10
      vertex 2.65 0 6.26667
      vertex 2.63724 -0.259745 6.20569
    endloop
  endfacet
  facet normal -0.998796 0.0490659 0
    outer loop
      vertex 2.65 0 6.26667
      vertex 2.63724 -0.259745 10
      vertex 2.65 0 10
    endloop
  endfacet
  facet normal -0.857724 0.514111 -3.20282e-19
    outer loop
      vertex 2.20339 -1.47226 6.08738
      vertex 2.33709 -1.2492 10
      vertex 2.33709 -1.2492 6.08519
    endloop
  endfacet
  facet normal -0.857724 0.514111 -3.20461e-19
    outer loop
      vertex 2.33709 -1.2492 10
      vertex 2.20339 -1.47226 6.08738
      vertex 2.20339 -1.47226 10
    endloop
  endfacet
  facet normal 0.803219 0.595685 -0
    outer loop
      vertex -2.04848 -1.68114 6.10263
      vertex -2.20339 -1.47226 10
      vertex -2.04848 -1.68114 10
    endloop
  endfacet
  facet normal 0.803219 0.595685 0
    outer loop
      vertex -2.20339 -1.47226 10
      vertex -2.04848 -1.68114 6.10263
      vertex -2.20339 -1.47226 6.08738
    endloop
  endfacet
  facet normal 0.941545 0.336887 -1.51093e-18
    outer loop
      vertex -2.44828 -1.01411 10
      vertex -2.53589 -0.769254 6.11999
      vertex -2.53589 -0.769254 10
    endloop
  endfacet
  facet normal 0.941545 0.336887 -1.50169e-18
    outer loop
      vertex -2.53589 -0.769254 6.11999
      vertex -2.44828 -1.01411 10
      vertex -2.44828 -1.01411 6.0961
    endloop
  endfacet
  facet normal -0.427557 0.903988 0
    outer loop
      vertex 1.2492 -2.33709 6.24505
      vertex 1.01411 -2.44828 10
      vertex 1.2492 -2.33709 10
    endloop
  endfacet
  facet normal -0.427557 0.903988 0
    outer loop
      vertex 1.01411 -2.44828 10
      vertex 1.2492 -2.33709 6.24505
      vertex 1.01411 -2.44828 6.18799
    endloop
  endfacet
  facet normal -0.336887 0.941545 0
    outer loop
      vertex 1.01411 -2.44828 6.18799
      vertex 0.769254 -2.53589 10
      vertex 1.01411 -2.44828 10
    endloop
  endfacet
  facet normal -0.336887 0.941545 0
    outer loop
      vertex 0.769254 -2.53589 10
      vertex 1.01411 -2.44828 6.18799
      vertex 0.769254 -2.53589 6.14302
    endloop
  endfacet
  facet normal -0.242983 -0.97003 -1.58066e-18
    outer loop
      vertex 0.516989 2.59908 10
      vertex 0.769254 2.53589 6.14302
      vertex 0.769254 2.53589 10
    endloop
  endfacet
  facet normal -0.242983 -0.97003 -1.56749e-18
    outer loop
      vertex 0.769254 2.53589 6.14302
      vertex 0.516989 2.59908 10
      vertex 0.516989 2.59908 6.1106
    endloop
  endfacet
  facet normal 0.989176 -0.146736 0
    outer loop
      vertex -2.63724 0.259745 6.20569
      vertex -2.59908 0.516989 10
      vertex -2.63724 0.259745 10
    endloop
  endfacet
  facet normal 0.989176 -0.146736 0
    outer loop
      vertex -2.59908 0.516989 10
      vertex -2.63724 0.259745 6.20569
      vertex -2.59908 0.516989 6.15664
    endloop
  endfacet
  facet normal 0.941545 -0.336887 0
    outer loop
      vertex -2.53589 0.769254 6.11999
      vertex -2.44828 1.01411 10
      vertex -2.53589 0.769254 10
    endloop
  endfacet
  facet normal 0.941545 -0.336887 0
    outer loop
      vertex -2.44828 1.01411 10
      vertex -2.53589 0.769254 6.11999
      vertex -2.44828 1.01411 6.0961
    endloop
  endfacet
  facet normal -0.97003 0.242983 0
    outer loop
      vertex 2.53589 -0.769254 10
      vertex 2.59908 -0.516989 6.15664
      vertex 2.53589 -0.769254 6.11999
    endloop
  endfacet
  facet normal -0.97003 0.242983 0
    outer loop
      vertex 2.59908 -0.516989 6.15664
      vertex 2.53589 -0.769254 10
      vertex 2.59908 -0.516989 10
    endloop
  endfacet
  facet normal -0.989176 0.146736 0
    outer loop
      vertex 2.59908 -0.516989 10
      vertex 2.63724 -0.259745 6.20569
      vertex 2.59908 -0.516989 6.15664
    endloop
  endfacet
  facet normal -0.989176 0.146736 0
    outer loop
      vertex 2.63724 -0.259745 6.20569
      vertex 2.59908 -0.516989 10
      vertex 2.63724 -0.259745 10
    endloop
  endfacet
  facet normal -0.514111 0.857724 -6.0913e-07
    outer loop
      vertex 1.47226 -2.20339 10
      vertex 1.32358 -2.29251 6.26793
      vertex 1.2492 -2.33709 10
    endloop
  endfacet
  facet normal -0.514122 0.857717 -7.69819e-19
    outer loop
      vertex 1.32358 -2.29251 6.26793
      vertex 1.47226 -2.20339 10
      vertex 1.47226 -2.20339 6.22472
    endloop
  endfacet
  facet normal -0.514089 0.857737 0
    outer loop
      vertex 1.2492 -2.33709 10
      vertex 1.32358 -2.29251 6.26793
      vertex 1.2492 -2.33709 6.24505
    endloop
  endfacet
  facet normal -0.74094 0.671572 -9.99016e-20
    outer loop
      vertex 1.87383 -1.87383 6.1308
      vertex 2.04848 -1.68114 10
      vertex 2.04848 -1.68114 6.10263
    endloop
  endfacet
  facet normal -0.74094 0.671572 -1.00629e-19
    outer loop
      vertex 2.04848 -1.68114 10
      vertex 1.87383 -1.87383 6.1308
      vertex 1.87383 -1.87383 10
    endloop
  endfacet
  facet normal -0.903988 0.427557 0
    outer loop
      vertex 2.33709 -1.2492 10
      vertex 2.44828 -1.01411 6.0961
      vertex 2.33709 -1.2492 6.08519
    endloop
  endfacet
  facet normal -0.903988 0.427557 0
    outer loop
      vertex 2.44828 -1.01411 6.0961
      vertex 2.33709 -1.2492 10
      vertex 2.44828 -1.01411 10
    endloop
  endfacet
  facet normal -0.0490659 0.998796 0
    outer loop
      vertex 0.259745 -2.63724 6.09101
      vertex 0 -2.65 10
      vertex 0.259745 -2.63724 10
    endloop
  endfacet
  facet normal -0.0490659 0.998796 0
    outer loop
      vertex 0 -2.65 10
      vertex 0.259745 -2.63724 6.09101
      vertex 0 -2.65 6.08446
    endloop
  endfacet
  facet normal 0.903988 0.427557 1.65278e-18
    outer loop
      vertex -2.33709 -1.2492 10
      vertex -2.44828 -1.01411 6.0961
      vertex -2.44828 -1.01411 10
    endloop
  endfacet
  facet normal 0.903988 0.427557 1.64817e-18
    outer loop
      vertex -2.44828 -1.01411 6.0961
      vertex -2.33709 -1.2492 10
      vertex -2.33709 -1.2492 6.08519
    endloop
  endfacet
  facet normal 0.97003 0.242983 -1.58626e-18
    outer loop
      vertex -2.53589 -0.769254 10
      vertex -2.59908 -0.516989 6.15664
      vertex -2.59908 -0.516989 10
    endloop
  endfacet
  facet normal 0.97003 0.242983 -1.57128e-18
    outer loop
      vertex -2.59908 -0.516989 6.15664
      vertex -2.53589 -0.769254 10
      vertex -2.53589 -0.769254 6.11999
    endloop
  endfacet
  facet normal 0.998796 0.0490659 -1.28997e-19
    outer loop
      vertex -2.63724 -0.259745 10
      vertex -2.65 0 6.26667
      vertex -2.65 0 10
    endloop
  endfacet
  facet normal 0.998796 0.0490659 -1.26924e-19
    outer loop
      vertex -2.65 0 6.26667
      vertex -2.63724 -0.259745 10
      vertex -2.63724 -0.259745 6.20569
    endloop
  endfacet
  facet normal -0.803219 0.595685 3.23064e-18
    outer loop
      vertex 2.04848 -1.68114 6.10263
      vertex 2.20339 -1.47226 10
      vertex 2.20339 -1.47226 6.08738
    endloop
  endfacet
  facet normal -0.803219 0.595685 3.24328e-18
    outer loop
      vertex 2.20339 -1.47226 10
      vertex 2.04848 -1.68114 6.10263
      vertex 2.04848 -1.68114 10
    endloop
  endfacet
  facet normal -0.671572 0.74094 -1.01702e-19
    outer loop
      vertex 1.87383 -1.87383 10
      vertex 1.68114 -2.04848 6.17163
      vertex 1.68114 -2.04848 10
    endloop
  endfacet
  facet normal -0.671572 0.74094 3.57138e-09
    outer loop
      vertex 1.87383 -1.87383 10
      vertex 1.73476 -1.99988 6.16027
      vertex 1.68114 -2.04848 6.17163
    endloop
  endfacet
  facet normal -0.671572 0.74094 1.44692e-18
    outer loop
      vertex 1.73476 -1.99988 6.16027
      vertex 1.87383 -1.87383 10
      vertex 1.87383 -1.87383 6.1308
    endloop
  endfacet
  facet normal -0.595685 0.803219 3.34817e-18
    outer loop
      vertex 1.68114 -2.04848 10
      vertex 1.47226 -2.20339 6.22472
      vertex 1.47226 -2.20339 10
    endloop
  endfacet
  facet normal -0.595685 0.803219 3.30174e-18
    outer loop
      vertex 1.47226 -2.20339 6.22472
      vertex 1.68114 -2.04848 10
      vertex 1.68114 -2.04848 6.17163
    endloop
  endfacet
  facet normal -0.941545 0.336887 0
    outer loop
      vertex 2.44828 -1.01411 10
      vertex 2.53589 -0.769254 6.11999
      vertex 2.44828 -1.01411 6.0961
    endloop
  endfacet
  facet normal -0.941545 0.336887 0
    outer loop
      vertex 2.53589 -0.769254 6.11999
      vertex 2.44828 -1.01411 10
      vertex 2.53589 -0.769254 10
    endloop
  endfacet
  facet normal 0.336887 0.941545 -1.53789e-18
    outer loop
      vertex -0.769254 -2.53589 10
      vertex -1.01411 -2.44828 6.18799
      vertex -1.01411 -2.44828 10
    endloop
  endfacet
  facet normal 0.336887 0.941545 -1.51995e-18
    outer loop
      vertex -1.01411 -2.44828 6.18799
      vertex -0.769254 -2.53589 10
      vertex -0.769254 -2.53589 6.14302
    endloop
  endfacet
  facet normal 0.146736 0.989176 -4.32994e-19
    outer loop
      vertex -0.259745 -2.63724 10
      vertex -0.516989 -2.59908 6.1106
      vertex -0.516989 -2.59908 10
    endloop
  endfacet
  facet normal 0.146736 0.989176 -4.30824e-19
    outer loop
      vertex -0.516989 -2.59908 6.1106
      vertex -0.259745 -2.63724 10
      vertex -0.259745 -2.63724 6.09101
    endloop
  endfacet
  facet normal 0.0490659 0.998796 -1.232e-19
    outer loop
      vertex 0 -2.65 10
      vertex -0.259745 -2.63724 6.09101
      vertex -0.259745 -2.63724 10
    endloop
  endfacet
  facet normal 0.0490659 0.998796 -1.22994e-19
    outer loop
      vertex -0.259745 -2.63724 6.09101
      vertex 0 -2.65 10
      vertex 0 -2.65 6.08446
    endloop
  endfacet
  facet normal 0.514111 0.857724 -6.0913e-07
    outer loop
      vertex -1.2492 -2.33709 10
      vertex -1.32358 -2.29251 6.26793
      vertex -1.47226 -2.20339 10
    endloop
  endfacet
  facet normal 0.514089 0.857737 5.73075e-19
    outer loop
      vertex -1.32358 -2.29251 6.26793
      vertex -1.2492 -2.33709 10
      vertex -1.2492 -2.33709 6.24505
    endloop
  endfacet
  facet normal 0.514122 0.857717 0
    outer loop
      vertex -1.47226 -2.20339 10
      vertex -1.32358 -2.29251 6.26793
      vertex -1.47226 -2.20339 6.22472
    endloop
  endfacet
  facet normal 0.671572 0.74094 -0
    outer loop
      vertex -1.68114 -2.04848 6.17163
      vertex -1.87383 -1.87383 10
      vertex -1.68114 -2.04848 10
    endloop
  endfacet
  facet normal 0.671572 0.74094 3.57138e-09
    outer loop
      vertex -1.73476 -1.99988 6.16027
      vertex -1.87383 -1.87383 10
      vertex -1.68114 -2.04848 6.17163
    endloop
  endfacet
  facet normal 0.671572 0.74094 0
    outer loop
      vertex -1.87383 -1.87383 10
      vertex -1.73476 -1.99988 6.16027
      vertex -1.87383 -1.87383 6.1308
    endloop
  endfacet
  facet normal 0.74094 0.671572 -0
    outer loop
      vertex -1.87383 -1.87383 6.1308
      vertex -2.04848 -1.68114 10
      vertex -1.87383 -1.87383 10
    endloop
  endfacet
  facet normal 0.74094 0.671572 0
    outer loop
      vertex -2.04848 -1.68114 10
      vertex -1.87383 -1.87383 6.1308
      vertex -2.04848 -1.68114 6.10263
    endloop
  endfacet
  facet normal 0.857724 0.514111 3.20282e-19
    outer loop
      vertex -2.20339 -1.47226 10
      vertex -2.33709 -1.2492 6.08519
      vertex -2.33709 -1.2492 10
    endloop
  endfacet
  facet normal 0.857724 0.514111 3.20461e-19
    outer loop
      vertex -2.33709 -1.2492 6.08519
      vertex -2.20339 -1.47226 10
      vertex -2.20339 -1.47226 6.08738
    endloop
  endfacet
  facet normal 0.989176 0.146736 -4.43845e-19
    outer loop
      vertex -2.59908 -0.516989 10
      vertex -2.63724 -0.259745 6.20569
      vertex -2.63724 -0.259745 10
    endloop
  endfacet
  facet normal 0.989176 0.146736 -4.38181e-19
    outer loop
      vertex -2.63724 -0.259745 6.20569
      vertex -2.59908 -0.516989 10
      vertex -2.59908 -0.516989 6.15664
    endloop
  endfacet
  facet normal -0.242983 0.97003 0
    outer loop
      vertex 0.769254 -2.53589 6.14302
      vertex 0.516989 -2.59908 10
      vertex 0.769254 -2.53589 10
    endloop
  endfacet
  facet normal -0.242983 0.97003 0
    outer loop
      vertex 0.516989 -2.59908 10
      vertex 0.769254 -2.53589 6.14302
      vertex 0.516989 -2.59908 6.1106
    endloop
  endfacet
  facet normal 0.242983 0.97003 -1.58066e-18
    outer loop
      vertex -0.516989 -2.59908 10
      vertex -0.769254 -2.53589 6.14302
      vertex -0.769254 -2.53589 10
    endloop
  endfacet
  facet normal 0.242983 0.97003 -1.56749e-18
    outer loop
      vertex -0.769254 -2.53589 6.14302
      vertex -0.516989 -2.59908 10
      vertex -0.516989 -2.59908 6.1106
    endloop
  endfacet
  facet normal 0.427557 0.903988 1.71834e-18
    outer loop
      vertex -1.01411 -2.44828 10
      vertex -1.2492 -2.33709 6.24505
      vertex -1.2492 -2.33709 10
    endloop
  endfacet
  facet normal 0.427557 0.903988 1.69262e-18
    outer loop
      vertex -1.2492 -2.33709 6.24505
      vertex -1.01411 -2.44828 10
      vertex -1.01411 -2.44828 6.18799
    endloop
  endfacet
  facet normal 0.595685 0.803219 -0
    outer loop
      vertex -1.47226 -2.20339 6.22472
      vertex -1.68114 -2.04848 10
      vertex -1.47226 -2.20339 10
    endloop
  endfacet
  facet normal 0.595685 0.803219 0
    outer loop
      vertex -1.68114 -2.04848 10
      vertex -1.47226 -2.20339 6.22472
      vertex -1.68114 -2.04848 6.17163
    endloop
  endfacet
  facet normal -0.866025 -0.5 0
    outer loop
      vertex 5.5 0 0
      vertex 2.75 4.76314 5
      vertex 2.75 4.76314 0
    endloop
  endfacet
  facet normal -0.866025 -0.5 0
    outer loop
      vertex 2.75 4.76314 5
      vertex 5.5 0 0
      vertex 5.5 0 5
    endloop
  endfacet
  facet normal 0.866025 -0.5 0
    outer loop
      vertex -5.5 0 5
      vertex -2.75 4.76314 0
      vertex -2.75 4.76314 5
    endloop
  endfacet
  facet normal 0.866025 -0.5 0
    outer loop
      vertex -2.75 4.76314 0
      vertex -5.5 0 5
      vertex -5.5 0 0
    endloop
  endfacet
  facet normal 0 -1 0
    outer loop
      vertex -2.75 4.76314 0
      vertex 2.75 4.76314 5
      vertex -2.75 4.76314 5
    endloop
  endfacet
  facet normal 0 -1 -0
    outer loop
      vertex 2.75 4.76314 5
      vertex -2.75 4.76314 0
      vertex 2.75 4.76314 0
    endloop
  endfacet
  facet normal -0.866025 0.5 0
    outer loop
      vertex 2.75 -4.76314 0
      vertex 5.5 0 5
      vertex 5.5 0 0
    endloop
  endfacet
  facet normal -0.866025 0.5 0
    outer loop
      vertex 5.5 0 5
      vertex 2.75 -4.76314 0
      vertex 2.75 -4.76314 5
    endloop
  endfacet
  facet normal 0 1 -0
    outer loop
      vertex 2.75 -4.76314 0
      vertex -2.75 -4.76314 5
      vertex 2.75 -4.76314 5
    endloop
  endfacet
  facet normal 0 1 0
    outer loop
      vertex -2.75 -4.76314 5
      vertex 2.75 -4.76314 0
      vertex -2.75 -4.76314 0
    endloop
  endfacet
  facet normal 0.866025 0.5 0
    outer loop
      vertex -2.75 -4.76314 5
      vertex -5.5 0 0
      vertex -5.5 0 5
    endloop
  endfacet
  facet normal 0.866025 0.5 0
    outer loop
      vertex -5.5 0 0
      vertex -2.75 -4.76314 5
      vertex -2.75 -4.76314 0
    endloop
  endfacet
  facet normal -0.395414 -0.228294 -0.88968
    outer loop
      vertex 2.63724 0.259745 6.20569
      vertex 5.5 0 5
      vertex 2.65 0 6.26667
    endloop
  endfacet
  facet normal -0.395414 -0.228296 -0.889679
    outer loop
      vertex 2.59908 0.516989 6.15664
      vertex 5.5 0 5
      vertex 2.63724 0.259745 6.20569
    endloop
  endfacet
  facet normal -0.395415 -0.228303 -0.889677
    outer loop
      vertex 2.53589 0.769254 6.11999
      vertex 5.5 0 5
      vertex 2.59908 0.516989 6.15664
    endloop
  endfacet
  facet normal -0.395412 -0.228283 -0.889683
    outer loop
      vertex 2.44828 1.01411 6.0961
      vertex 5.5 0 5
      vertex 2.53589 0.769254 6.11999
    endloop
  endfacet
  facet normal -0.395417 -0.228307 -0.889675
    outer loop
      vertex 2.33709 1.2492 6.08519
      vertex 5.5 0 5
      vertex 2.44828 1.01411 6.0961
    endloop
  endfacet
  facet normal -0.395413 -0.228292 -0.889681
    outer loop
      vertex 5.5 0 5
      vertex 2.33709 1.2492 6.08519
      vertex 2.75 4.76314 5
    endloop
  endfacet
  facet normal -0.395436 -0.228286 -0.889672
    outer loop
      vertex 2.20339 1.47226 6.08738
      vertex 2.75 4.76314 5
      vertex 2.33709 1.2492 6.08519
    endloop
  endfacet
  facet normal -0.395413 -0.228293 -0.88968
    outer loop
      vertex 2.04848 1.68114 6.10263
      vertex 2.75 4.76314 5
      vertex 2.20339 1.47226 6.08738
    endloop
  endfacet
  facet normal -0.395386 -0.228302 -0.88969
    outer loop
      vertex 1.87383 1.87383 6.1308
      vertex 2.75 4.76314 5
      vertex 2.04848 1.68114 6.10263
    endloop
  endfacet
  facet normal -0.395437 -0.22828 -0.889673
    outer loop
      vertex 2.75 4.76314 5
      vertex 1.87383 1.87383 6.1308
      vertex 1.73476 1.99988 6.16027
    endloop
  endfacet
  facet normal 0.395437 -0.22828 -0.889673
    outer loop
      vertex -1.87383 1.87383 6.1308
      vertex -2.75 4.76314 5
      vertex -1.73476 1.99988 6.16027
    endloop
  endfacet
  facet normal 0.395386 -0.228302 -0.88969
    outer loop
      vertex -2.04848 1.68114 6.10263
      vertex -2.75 4.76314 5
      vertex -1.87383 1.87383 6.1308
    endloop
  endfacet
  facet normal 0.395413 -0.228293 -0.88968
    outer loop
      vertex -2.20339 1.47226 6.08738
      vertex -2.75 4.76314 5
      vertex -2.04848 1.68114 6.10263
    endloop
  endfacet
  facet normal 0.395436 -0.228286 -0.889672
    outer loop
      vertex -2.33709 1.2492 6.08519
      vertex -2.75 4.76314 5
      vertex -2.20339 1.47226 6.08738
    endloop
  endfacet
  facet normal 0.395417 -0.228307 -0.889675
    outer loop
      vertex -5.5 0 5
      vertex -2.33709 1.2492 6.08519
      vertex -2.44828 1.01411 6.0961
    endloop
  endfacet
  facet normal 0.395412 -0.228283 -0.889683
    outer loop
      vertex -5.5 0 5
      vertex -2.44828 1.01411 6.0961
      vertex -2.53589 0.769254 6.11999
    endloop
  endfacet
  facet normal 0.395415 -0.228303 -0.889677
    outer loop
      vertex -5.5 0 5
      vertex -2.53589 0.769254 6.11999
      vertex -2.59908 0.516989 6.15664
    endloop
  endfacet
  facet normal 0.395414 -0.228296 -0.889679
    outer loop
      vertex -5.5 0 5
      vertex -2.59908 0.516989 6.15664
      vertex -2.63724 0.259745 6.20569
    endloop
  endfacet
  facet normal 0.395414 -0.228294 -0.88968
    outer loop
      vertex -5.5 0 5
      vertex -2.63724 0.259745 6.20569
      vertex -2.65 0 6.26667
    endloop
  endfacet
  facet normal 0.395413 -0.228292 -0.889681
    outer loop
      vertex -2.33709 1.2492 6.08519
      vertex -5.5 0 5
      vertex -2.75 4.76314 5
    endloop
  endfacet
  facet normal 0.395406 -0.228298 -0.889682
    outer loop
      vertex -1.47226 2.20339 6.22472
      vertex -2.75 4.76314 5
      vertex -1.32358 2.29251 6.26793
    endloop
  endfacet
  facet normal 0.395426 -0.228285 -0.889676
    outer loop
      vertex -1.68114 2.04848 6.17163
      vertex -2.75 4.76314 5
      vertex -1.47226 2.20339 6.22472
    endloop
  endfacet
  facet normal 0.39541 -0.228294 -0.889682
    outer loop
      vertex -2.75 4.76314 5
      vertex -1.68114 2.04848 6.17163
      vertex -1.73476 1.99988 6.16027
    endloop
  endfacet
  facet normal 0.39541 0.228294 -0.889682
    outer loop
      vertex -1.68114 -2.04848 6.17163
      vertex -2.75 -4.76314 5
      vertex -1.73476 -1.99988 6.16027
    endloop
  endfacet
  facet normal 0.395426 0.228285 -0.889676
    outer loop
      vertex -1.47226 -2.20339 6.22472
      vertex -2.75 -4.76314 5
      vertex -1.68114 -2.04848 6.17163
    endloop
  endfacet
  facet normal 0.395406 0.228298 -0.889682
    outer loop
      vertex -2.75 -4.76314 5
      vertex -1.47226 -2.20339 6.22472
      vertex -1.32358 -2.29251 6.26793
    endloop
  endfacet
  facet normal 0.395437 0.22828 -0.889673
    outer loop
      vertex -2.75 -4.76314 5
      vertex -1.87383 -1.87383 6.1308
      vertex -1.73476 -1.99988 6.16027
    endloop
  endfacet
  facet normal 0.395386 0.228302 -0.88969
    outer loop
      vertex -2.75 -4.76314 5
      vertex -2.04848 -1.68114 6.10263
      vertex -1.87383 -1.87383 6.1308
    endloop
  endfacet
  facet normal 0.395413 0.228293 -0.88968
    outer loop
      vertex -2.75 -4.76314 5
      vertex -2.20339 -1.47226 6.08738
      vertex -2.04848 -1.68114 6.10263
    endloop
  endfacet
  facet normal 0.395436 0.228286 -0.889672
    outer loop
      vertex -2.75 -4.76314 5
      vertex -2.33709 -1.2492 6.08519
      vertex -2.20339 -1.47226 6.08738
    endloop
  endfacet
  facet normal 0.395413 0.228292 -0.889681
    outer loop
      vertex -5.5 0 5
      vertex -2.33709 -1.2492 6.08519
      vertex -2.75 -4.76314 5
    endloop
  endfacet
  facet normal 0.395417 0.228307 -0.889675
    outer loop
      vertex -2.33709 -1.2492 6.08519
      vertex -5.5 0 5
      vertex -2.44828 -1.01411 6.0961
    endloop
  endfacet
  facet normal 0.395412 0.228283 -0.889683
    outer loop
      vertex -2.44828 -1.01411 6.0961
      vertex -5.5 0 5
      vertex -2.53589 -0.769254 6.11999
    endloop
  endfacet
  facet normal 0.395415 0.228303 -0.889677
    outer loop
      vertex -2.53589 -0.769254 6.11999
      vertex -5.5 0 5
      vertex -2.59908 -0.516989 6.15664
    endloop
  endfacet
  facet normal 0.395414 0.228296 -0.889679
    outer loop
      vertex -2.59908 -0.516989 6.15664
      vertex -5.5 0 5
      vertex -2.63724 -0.259745 6.20569
    endloop
  endfacet
  facet normal 0.395414 0.228294 -0.88968
    outer loop
      vertex -2.63724 -0.259745 6.20569
      vertex -5.5 0 5
      vertex -2.65 0 6.26667
    endloop
  endfacet
  facet normal -0.395413 0.228292 -0.889681
    outer loop
      vertex 2.33709 -1.2492 6.08519
      vertex 5.5 0 5
      vertex 2.75 -4.76314 5
    endloop
  endfacet
  facet normal -0.395414 0.228294 -0.88968
    outer loop
      vertex 5.5 0 5
      vertex 2.63724 -0.259745 6.20569
      vertex 2.65 0 6.26667
    endloop
  endfacet
  facet normal -0.395414 0.228296 -0.889679
    outer loop
      vertex 5.5 0 5
      vertex 2.59908 -0.516989 6.15664
      vertex 2.63724 -0.259745 6.20569
    endloop
  endfacet
  facet normal -0.395415 0.228303 -0.889677
    outer loop
      vertex 5.5 0 5
      vertex 2.53589 -0.769254 6.11999
      vertex 2.59908 -0.516989 6.15664
    endloop
  endfacet
  facet normal -0.395412 0.228283 -0.889683
    outer loop
      vertex 5.5 0 5
      vertex 2.44828 -1.01411 6.0961
      vertex 2.53589 -0.769254 6.11999
    endloop
  endfacet
  facet normal -0.395417 0.228307 -0.889675
    outer loop
      vertex 5.5 0 5
      vertex 2.33709 -1.2492 6.08519
      vertex 2.44828 -1.01411 6.0961
    endloop
  endfacet
  facet normal -0.395436 0.228286 -0.889672
    outer loop
      vertex 2.75 -4.76314 5
      vertex 2.20339 -1.47226 6.08738
      vertex 2.33709 -1.2492 6.08519
    endloop
  endfacet
  facet normal -0.395413 0.228293 -0.88968
    outer loop
      vertex 2.75 -4.76314 5
      vertex 2.04848 -1.68114 6.10263
      vertex 2.20339 -1.47226 6.08738
    endloop
  endfacet
  facet normal -0.395386 0.228302 -0.88969
    outer loop
      vertex 2.75 -4.76314 5
      vertex 1.87383 -1.87383 6.1308
      vertex 2.04848 -1.68114 6.10263
    endloop
  endfacet
  facet normal -0.395437 0.22828 -0.889673
    outer loop
      vertex 1.87383 -1.87383 6.1308
      vertex 2.75 -4.76314 5
      vertex 1.73476 -1.99988 6.16027
    endloop
  endfacet
  facet normal -0.39541 -0.228294 -0.889682
    outer loop
      vertex 1.68114 2.04848 6.17163
      vertex 2.75 4.76314 5
      vertex 1.73476 1.99988 6.16027
    endloop
  endfacet
  facet normal -0.395426 -0.228285 -0.889676
    outer loop
      vertex 1.47226 2.20339 6.22472
      vertex 2.75 4.76314 5
      vertex 1.68114 2.04848 6.17163
    endloop
  endfacet
  facet normal -0.395406 -0.228298 -0.889682
    outer loop
      vertex 2.75 4.76314 5
      vertex 1.47226 2.20339 6.22472
      vertex 1.32358 2.29251 6.26793
    endloop
  endfacet
  facet normal 1.329e-05 0.456591 -0.889677
    outer loop
      vertex 2.75 -4.76314 5
      vertex 1.2492 -2.33709 6.24505
      vertex 1.32358 -2.29251 6.26793
    endloop
  endfacet
  facet normal -8.08145e-06 0.45658 -0.889682
    outer loop
      vertex 2.75 -4.76314 5
      vertex 1.01411 -2.44828 6.18799
      vertex 1.2492 -2.33709 6.24505
    endloop
  endfacet
  facet normal 2.4071e-05 0.456599 -0.889672
    outer loop
      vertex 2.75 -4.76314 5
      vertex 0.769254 -2.53589 6.14302
      vertex 1.01411 -2.44828 6.18799
    endloop
  endfacet
  facet normal -2.58855e-05 0.456564 -0.88969
    outer loop
      vertex 2.75 -4.76314 5
      vertex 0.516989 -2.59908 6.1106
      vertex 0.769254 -2.53589 6.14302
    endloop
  endfacet
  facet normal 1.86269e-05 0.456601 -0.889672
    outer loop
      vertex 2.75 -4.76314 5
      vertex 0.259745 -2.63724 6.09101
      vertex 0.516989 -2.59908 6.1106
    endloop
  endfacet
  facet normal 5.11502e-06 0.456588 -0.889678
    outer loop
      vertex 2.75 -4.76314 5
      vertex 0 -2.65 6.08446
      vertex 0.259745 -2.63724 6.09101
    endloop
  endfacet
  facet normal 0 0.456583 -0.889681
    outer loop
      vertex -2.75 -4.76314 5
      vertex 0 -2.65 6.08446
      vertex 2.75 -4.76314 5
    endloop
  endfacet
  facet normal -5.11502e-06 0.456588 -0.889678
    outer loop
      vertex 0 -2.65 6.08446
      vertex -2.75 -4.76314 5
      vertex -0.259745 -2.63724 6.09101
    endloop
  endfacet
  facet normal -1.86269e-05 0.456601 -0.889672
    outer loop
      vertex -0.259745 -2.63724 6.09101
      vertex -2.75 -4.76314 5
      vertex -0.516989 -2.59908 6.1106
    endloop
  endfacet
  facet normal 2.58855e-05 0.456564 -0.88969
    outer loop
      vertex -0.516989 -2.59908 6.1106
      vertex -2.75 -4.76314 5
      vertex -0.769254 -2.53589 6.14302
    endloop
  endfacet
  facet normal -2.4071e-05 0.456599 -0.889672
    outer loop
      vertex -0.769254 -2.53589 6.14302
      vertex -2.75 -4.76314 5
      vertex -1.01411 -2.44828 6.18799
    endloop
  endfacet
  facet normal 8.08145e-06 0.45658 -0.889682
    outer loop
      vertex -1.01411 -2.44828 6.18799
      vertex -2.75 -4.76314 5
      vertex -1.2492 -2.33709 6.24505
    endloop
  endfacet
  facet normal -1.329e-05 0.456591 -0.889677
    outer loop
      vertex -1.2492 -2.33709 6.24505
      vertex -2.75 -4.76314 5
      vertex -1.32358 -2.29251 6.26793
    endloop
  endfacet
  facet normal 1.329e-05 -0.456591 -0.889677
    outer loop
      vertex 1.2492 2.33709 6.24505
      vertex 2.75 4.76314 5
      vertex 1.32358 2.29251 6.26793
    endloop
  endfacet
  facet normal -8.08145e-06 -0.45658 -0.889682
    outer loop
      vertex 1.01411 2.44828 6.18799
      vertex 2.75 4.76314 5
      vertex 1.2492 2.33709 6.24505
    endloop
  endfacet
  facet normal 2.4071e-05 -0.456599 -0.889672
    outer loop
      vertex 0.769254 2.53589 6.14302
      vertex 2.75 4.76314 5
      vertex 1.01411 2.44828 6.18799
    endloop
  endfacet
  facet normal -2.58855e-05 -0.456564 -0.88969
    outer loop
      vertex 0.516989 2.59908 6.1106
      vertex 2.75 4.76314 5
      vertex 0.769254 2.53589 6.14302
    endloop
  endfacet
  facet normal 1.86269e-05 -0.456601 -0.889672
    outer loop
      vertex 0.259745 2.63724 6.09101
      vertex 2.75 4.76314 5
      vertex 0.516989 2.59908 6.1106
    endloop
  endfacet
  facet normal 5.11502e-06 -0.456588 -0.889678
    outer loop
      vertex 0 2.65 6.08446
      vertex 2.75 4.76314 5
      vertex 0.259745 2.63724 6.09101
    endloop
  endfacet
  facet normal -5.11502e-06 -0.456588 -0.889678
    outer loop
      vertex -2.75 4.76314 5
      vertex 0 2.65 6.08446
      vertex -0.259745 2.63724 6.09101
    endloop
  endfacet
  facet normal -1.86269e-05 -0.456601 -0.889672
    outer loop
      vertex -2.75 4.76314 5
      vertex -0.259745 2.63724 6.09101
      vertex -0.516989 2.59908 6.1106
    endloop
  endfacet
  facet normal 2.58855e-05 -0.456564 -0.88969
    outer loop
      vertex -2.75 4.76314 5
      vertex -0.516989 2.59908 6.1106
      vertex -0.769254 2.53589 6.14302
    endloop
  endfacet
  facet normal -2.4071e-05 -0.456599 -0.889672
    outer loop
      vertex -2.75 4.76314 5
      vertex -0.769254 2.53589 6.14302
      vertex -1.01411 2.44828 6.18799
    endloop
  endfacet
  facet normal 8.08145e-06 -0.45658 -0.889682
    outer loop
      vertex -2.75 4.76314 5
      vertex -1.01411 2.44828 6.18799
      vertex -1.2492 2.33709 6.24505
    endloop
  endfacet
  facet normal -1.329e-05 -0.456591 -0.889677
    outer loop
      vertex -2.75 4.76314 5
      vertex -1.2492 2.33709 6.24505
      vertex -1.32358 2.29251 6.26793
    endloop
  endfacet
  facet normal 1.11732e-17 -0.456583 -0.889681
    outer loop
      vertex 0 2.65 6.08446
      vertex -2.75 4.76314 5
      vertex 2.75 4.76314 5
    endloop
  endfacet
  facet normal -0.39541 0.228294 -0.889682
    outer loop
      vertex 2.75 -4.76314 5
      vertex 1.68114 -2.04848 6.17163
      vertex 1.73476 -1.99988 6.16027
    endloop
  endfacet
  facet normal -0.395426 0.228285 -0.889676
    outer loop
      vertex 2.75 -4.76314 5
      vertex 1.47226 -2.20339 6.22472
      vertex 1.68114 -2.04848 6.17163
    endloop
  endfacet
  facet normal -0.395406 0.228298 -0.889682
    outer loop
      vertex 1.47226 -2.20339 6.22472
      vertex 2.75 -4.76314 5
      vertex 1.32358 -2.29251 6.26793
    endloop
  endfacet
endsolid OpenSCAD_Model
